<svg width="104" height="104" viewBox="0 0 104 104" fill="none" xmlns="http://www.w3.org/2000/svg">
<path d="M14.3787 31.8736C22.1895 14.3732 38.9161 4.30755 58.0274 7.87323C74.1086 10.8736 82.8697 19.6478 91.1084 31.8734C101.217 46.8732 95.703 61.8734 87.4327 68.3734C79.1625 74.8734 61.9074 88.3427 51.5949 93.3734C38.2707 99.8732 22.4449 94.8732 13.4598 78.8734C3.35155 60.8735 7.457 47.3821 14.3787 31.8736Z" fill="black" stroke="black"/>
<mask id="path-2-outside-1_16_913" maskUnits="userSpaceOnUse" x="34.29" y="39.1592" width="32" height="27" fill="black">
<rect fill="white" x="34.29" y="39.1592" width="32" height="27"/>
<path d="M44.5965 64.5455C42.8011 64.538 41.267 64.0645 39.9943 63.1251C38.7215 62.1857 37.7481 60.8183 37.0738 59.0228C36.3996 57.2274 36.0624 55.0645 36.0624 52.5342C36.0624 50.0115 36.3996 47.8561 37.0738 46.0683C37.7556 44.2804 38.7329 42.9168 40.0056 41.9774C41.2859 41.038 42.8162 40.5683 44.5965 40.5683C46.3768 40.5683 47.9034 41.0418 49.1761 41.9887C50.4488 42.9281 51.4223 44.2918 52.0965 46.0796C52.7784 47.8599 53.1193 50.0115 53.1193 52.5342C53.1193 55.0721 52.7821 57.2387 52.1079 59.0342C51.4337 60.8221 50.4602 62.1895 49.1874 63.1365C47.9147 64.0758 46.3844 64.5455 44.5965 64.5455ZM44.5965 61.5115C46.1723 61.5115 47.4034 60.7425 48.2897 59.2046C49.1837 57.6668 49.6306 55.4433 49.6306 52.5342C49.6306 50.6024 49.4261 48.9698 49.017 47.6365C48.6155 46.2955 48.0359 45.2804 47.2784 44.591C46.5284 43.894 45.6344 43.5455 44.5965 43.5455C43.0284 43.5455 41.7973 44.3183 40.9034 45.8637C40.0094 47.4092 39.5587 49.6327 39.5511 52.5342C39.5511 54.4736 39.7518 56.1137 40.1534 57.4546C40.5624 58.788 41.142 59.7993 41.892 60.4887C42.642 61.1705 43.5435 61.5115 44.5965 61.5115ZM64.7001 40.8865V64.1592H61.1773V44.4092H61.041L55.4728 48.0455V44.6819L61.2796 40.8865H64.7001Z"/>
</mask>
<path d="M44.5965 64.5455C42.8011 64.538 41.267 64.0645 39.9943 63.1251C38.7215 62.1857 37.7481 60.8183 37.0738 59.0228C36.3996 57.2274 36.0624 55.0645 36.0624 52.5342C36.0624 50.0115 36.3996 47.8561 37.0738 46.0683C37.7556 44.2804 38.7329 42.9168 40.0056 41.9774C41.2859 41.038 42.8162 40.5683 44.5965 40.5683C46.3768 40.5683 47.9034 41.0418 49.1761 41.9887C50.4488 42.9281 51.4223 44.2918 52.0965 46.0796C52.7784 47.8599 53.1193 50.0115 53.1193 52.5342C53.1193 55.0721 52.7821 57.2387 52.1079 59.0342C51.4337 60.8221 50.4602 62.1895 49.1874 63.1365C47.9147 64.0758 46.3844 64.5455 44.5965 64.5455ZM44.5965 61.5115C46.1723 61.5115 47.4034 60.7425 48.2897 59.2046C49.1837 57.6668 49.6306 55.4433 49.6306 52.5342C49.6306 50.6024 49.4261 48.9698 49.017 47.6365C48.6155 46.2955 48.0359 45.2804 47.2784 44.591C46.5284 43.894 45.6344 43.5455 44.5965 43.5455C43.0284 43.5455 41.7973 44.3183 40.9034 45.8637C40.0094 47.4092 39.5587 49.6327 39.5511 52.5342C39.5511 54.4736 39.7518 56.1137 40.1534 57.4546C40.5624 58.788 41.142 59.7993 41.892 60.4887C42.642 61.1705 43.5435 61.5115 44.5965 61.5115ZM64.7001 40.8865V64.1592H61.1773V44.4092H61.041L55.4728 48.0455V44.6819L61.2796 40.8865H64.7001Z" fill="white"/>
<path d="M44.5965 64.5455L44.5923 65.5455H44.5965V64.5455ZM37.0738 59.0228L38.01 58.6713L37.0738 59.0228ZM37.0738 46.0683L36.1394 45.7119L36.1381 45.7154L37.0738 46.0683ZM40.0056 41.9774L39.4141 41.1711L39.4118 41.1728L40.0056 41.9774ZM49.1761 41.9887L48.5791 42.791L48.5822 42.7933L49.1761 41.9887ZM52.0965 46.0796L51.1608 46.4325L51.1627 46.4373L52.0965 46.0796ZM52.1079 59.0342L53.0436 59.387L53.0441 59.3857L52.1079 59.0342ZM49.1874 63.1365L49.7813 63.941L49.7844 63.9387L49.1874 63.1365ZM48.2897 59.2046L47.4252 58.7021L47.4233 58.7053L48.2897 59.2046ZM49.017 47.6365L48.059 47.9233L48.061 47.9298L49.017 47.6365ZM47.2784 44.591L46.5976 45.3236L46.6053 45.3306L47.2784 44.591ZM40.9034 45.8637L40.0377 45.363L40.9034 45.8637ZM39.5511 52.5342L38.5511 52.5316V52.5342H39.5511ZM40.1534 57.4546L39.1954 57.7415L39.1973 57.748L40.1534 57.4546ZM41.892 60.4887L41.2152 61.225L41.2193 61.2287L41.892 60.4887ZM44.6008 63.5456C42.9877 63.5387 41.6674 63.1172 40.5881 62.3205L39.4004 63.9297C40.8665 65.0118 42.6145 65.5372 44.5923 65.5455L44.6008 63.5456ZM40.5881 62.3205C39.5011 61.5182 38.6308 60.3246 38.01 58.6713L36.1376 59.3744C36.8653 61.312 37.9419 62.8532 39.4004 63.9297L40.5881 62.3205ZM38.01 58.6713C37.389 57.0177 37.0624 54.9806 37.0624 52.5342H35.0624C35.0624 55.1484 35.4101 57.437 36.1376 59.3744L38.01 58.6713ZM37.0624 52.5342C37.0624 50.0955 37.389 48.0665 38.0095 46.4211L36.1381 45.7154C35.4102 47.6458 35.0624 49.9274 35.0624 52.5342H37.0624ZM38.0082 46.4246C38.6362 44.7778 39.5105 43.5857 40.5995 42.7819L39.4118 41.1728C37.9553 42.2478 36.8751 43.783 36.1394 45.7119L38.0082 46.4246ZM40.5972 42.7836C41.6854 41.9852 43.002 41.5683 44.5965 41.5683V39.5683C42.6304 39.5683 40.8865 40.0908 39.4141 41.1711L40.5972 42.7836ZM44.5965 41.5683C46.1893 41.5683 47.4998 41.988 48.5791 42.791L49.773 41.1864C48.3069 40.0956 46.5643 39.5683 44.5965 39.5683V41.5683ZM48.5822 42.7933C49.6702 43.5963 50.5404 44.7871 51.1609 46.4325L53.0322 45.7268C52.3042 43.7964 51.2274 42.2599 49.7699 41.1841L48.5822 42.7933ZM51.1627 46.4373C51.7892 48.0731 52.1193 50.0964 52.1193 52.5342H54.1193C54.1193 49.9265 53.7675 47.6468 53.0304 45.722L51.1627 46.4373ZM52.1193 52.5342C52.1193 54.9886 51.7926 57.0294 51.1717 58.6826L53.0441 59.3857C53.7717 57.4481 54.1193 55.1555 54.1193 52.5342H52.1193ZM51.1722 58.6813C50.5516 60.327 49.6807 61.523 48.5905 62.3342L49.7844 63.9387C51.2396 62.856 52.3157 61.3171 53.0436 59.387L51.1722 58.6813ZM48.5936 62.3319C47.5149 63.1281 46.1998 63.5455 44.5965 63.5455V65.5455C46.5691 65.5455 48.3146 65.0236 49.7813 63.941L48.5936 62.3319ZM44.5965 62.5115C46.5811 62.5115 48.1184 61.5044 49.1561 59.704L47.4233 58.7053C46.6883 59.9806 45.7634 60.5115 44.5965 60.5115V62.5115ZM49.1543 59.7072C50.1765 57.9486 50.6306 55.5195 50.6306 52.5342H48.6306C48.6306 55.3671 48.1908 57.3849 47.4252 58.7021L49.1543 59.7072ZM50.6306 52.5342C50.6306 50.5382 50.4201 48.8002 49.973 47.3431L48.061 47.9298C48.4321 49.1394 48.6306 50.6665 48.6306 52.5342H50.6306ZM49.975 47.3496C49.5397 45.896 48.8839 44.6999 47.9514 43.8514L46.6053 45.3306C47.188 45.8608 47.6912 46.695 48.059 47.9233L49.975 47.3496ZM47.9591 43.8585C47.0213 42.987 45.8831 42.5455 44.5965 42.5455V44.5455C45.3857 44.5455 46.0354 44.8011 46.5976 45.3235L47.9591 43.8585ZM44.5965 42.5455C42.6158 42.5455 41.0807 43.5599 40.0377 45.363L41.769 46.3644C42.5139 45.0766 43.4409 44.5455 44.5965 44.5455V42.5455ZM40.0377 45.363C39.0176 47.1267 38.5589 49.5531 38.5511 52.5316L40.5511 52.5368C40.5585 49.7122 41.0013 47.6917 41.769 46.3644L40.0377 45.363ZM38.5511 52.5342C38.5511 54.5362 38.7576 56.2794 39.1954 57.7415L41.1113 57.1678C40.7461 55.948 40.5511 54.4109 40.5511 52.5342H38.5511ZM39.1973 57.748C39.6401 59.191 40.2949 60.3789 41.2153 61.225L42.5687 59.7525C41.9891 59.2197 41.4848 58.3849 41.1094 57.1613L39.1973 57.748ZM41.2193 61.2287C42.1611 62.0848 43.3054 62.5115 44.5965 62.5115V60.5115C43.7816 60.5115 43.1229 60.2562 42.5647 59.7488L41.2193 61.2287ZM64.7001 40.8865H65.7001V39.8865H64.7001V40.8865ZM64.7001 64.1592V65.1592H65.7001V64.1592H64.7001ZM61.1773 64.1592H60.1773V65.1592H61.1773V64.1592ZM61.1773 44.4092H62.1773V43.4092H61.1773V44.4092ZM61.041 44.4092V43.4092H60.7434L60.4942 43.5719L61.041 44.4092ZM55.4728 48.0455H54.4728V49.893L56.0196 48.8828L55.4728 48.0455ZM55.4728 44.6819L54.9257 43.8448L54.4728 44.1409V44.6819H55.4728ZM61.2796 40.8865V39.8865H60.9818L60.7325 40.0494L61.2796 40.8865ZM63.7001 40.8865V64.1592H65.7001V40.8865H63.7001ZM64.7001 63.1592H61.1773V65.1592H64.7001V63.1592ZM62.1773 64.1592V44.4092H60.1773V64.1592H62.1773ZM61.1773 43.4092H61.041V45.4092H61.1773V43.4092ZM60.4942 43.5719L54.926 47.2083L56.0196 48.8828L61.5878 45.2465L60.4942 43.5719ZM56.4728 48.0455V44.6819H54.4728V48.0455H56.4728ZM56.0199 45.519L61.8267 41.7235L60.7325 40.0494L54.9257 43.8448L56.0199 45.519ZM61.2796 41.8865H64.7001V39.8865H61.2796V41.8865Z" fill="black" mask="url(#path-2-outside-1_16_913)"/>
<path d="M8.95033 29.4897C17.8846 9.42873 37.0174 -2.10968 58.8778 1.97771C77.2722 5.41705 87.2937 15.4751 96.7175 29.4894C108.28 46.6839 101.973 63.8788 92.5131 71.3298C83.0531 78.7809 63.316 94.2209 51.52 99.9876C36.2792 107.438 18.1768 101.707 7.89925 83.3661C-3.66307 62.7326 1.03295 47.2672 8.95033 29.4897Z" stroke="black" stroke-width="1.5" stroke-linecap="round" stroke-dasharray="5 5"/>
</svg>
