<svg width="116" height="103" viewBox="0 0 116 103" fill="none" xmlns="http://www.w3.org/2000/svg">
<path d="M107.449 54.2257C103.64 34.2257 93.9851 20.3116 80.7846 12.2257C72.622 7.22566 58.4736 4.72567 43.781 9.72567C29.0885 14.7257 20.3818 22.2257 12.2193 35.2257C4.05673 48.2257 7.32175 62.7257 27.456 76.2257C47.5903 89.7257 60.6504 97.7257 78.608 96.2257C96.5656 94.7257 111.258 74.2257 107.449 54.2257Z" fill="#D93749"/>
<path d="M51.2211 63.3866C49.4257 63.379 47.8916 62.9055 46.6189 61.9662C45.3461 61.0268 44.3727 59.6593 43.6984 57.8639C43.0242 56.0684 42.687 53.9055 42.687 51.3752C42.687 48.8525 43.0242 46.6972 43.6984 44.9093C44.3802 43.1215 45.3575 41.7578 46.6302 40.8184C47.9105 39.879 49.4408 39.4093 51.2211 39.4093C53.0014 39.4093 54.528 39.8828 55.8007 40.8298C57.0734 41.7692 58.0469 43.1328 58.7211 44.9207C59.403 46.701 59.7439 48.8525 59.7439 51.3752C59.7439 53.9131 59.4067 56.0798 58.7325 57.8752C58.0583 59.6631 57.0848 61.0305 55.812 61.9775C54.5393 62.9169 53.009 63.3866 51.2211 63.3866ZM51.2211 60.3525C52.7969 60.3525 54.028 59.5836 54.9143 58.0457C55.8083 56.5078 56.2552 54.2843 56.2552 51.3752C56.2552 49.4434 56.0507 47.8108 55.6416 46.4775C55.2401 45.1366 54.6605 44.1215 53.903 43.4321C53.153 42.7351 52.259 42.3866 51.2211 42.3866C49.653 42.3866 48.4219 43.1593 47.528 44.7048C46.634 46.2502 46.1833 48.4737 46.1757 51.3752C46.1757 53.3146 46.3764 54.9548 46.778 56.2957C47.187 57.629 47.7666 58.6404 48.5166 59.3298C49.2666 60.0116 50.1681 60.3525 51.2211 60.3525ZM71.3247 39.7275V63.0002H67.8019V43.2502H67.6656L62.0974 46.8866V43.523L67.9042 39.7275H71.3247Z" fill="white"/>
<path d="M114.039 54.3503C109.726 31.7565 98.7972 16.0379 83.8542 6.90335C74.614 1.2549 58.5979 -1.56932 41.9657 4.07913C25.3335 9.72758 15.4775 18.2003 6.23735 32.8862C-3.00275 47.5722 0.693292 63.9527 23.4855 79.2035C46.2778 94.4543 61.062 103.492 81.3902 101.797C101.718 100.103 118.351 76.9441 114.039 54.3503Z" stroke="#D93749" stroke-width="1.5" stroke-linecap="round" stroke-linejoin="round" stroke-dasharray="5 5"/>
</svg>
