<svg width="105" height="104" viewBox="0 0 105 104" fill="none" xmlns="http://www.w3.org/2000/svg">
<path d="M95.7292 41.6806C89.1283 26.1809 81.5808 16.9152 71.2416 11.6806C44.5773 -1.81907 27.708 17.1806 19.0013 27.1806C10.2946 37.1806 1.58789 61.6806 12.4713 76.6806C23.3547 91.6806 32.6056 98.6806 45.6656 97.6806C58.7257 96.6806 69.0649 91.1806 84.3017 79.6806C99.5384 68.1806 100.627 53.1806 95.7292 41.6806Z" fill="black" stroke="black"/>
<mask id="path-2-outside-1_16_743" maskUnits="userSpaceOnUse" x="34.2475" y="39.0002" width="38" height="27" fill="black">
<rect fill="white" x="34.2475" y="39.0002" width="38" height="27"/>
<path d="M43.9429 64.3866C42.1474 64.379 40.6133 63.9055 39.3406 62.9662C38.0679 62.0268 37.0944 60.6593 36.4202 58.8639C35.7459 57.0684 35.4088 54.9055 35.4088 52.3752C35.4088 49.8525 35.7459 47.6972 36.4202 45.9093C37.102 44.1215 38.0793 42.7578 39.352 41.8184C40.6323 40.879 42.1626 40.4093 43.9429 40.4093C45.7232 40.4093 47.2497 40.8828 48.5224 41.8298C49.7952 42.7692 50.7686 44.1328 51.4429 45.9207C52.1247 47.701 52.4656 49.8525 52.4656 52.3752C52.4656 54.9131 52.1285 57.0798 51.4543 58.8752C50.78 60.6631 49.8065 62.0305 48.5338 62.9775C47.2611 63.9169 45.7308 64.3866 43.9429 64.3866ZM43.9429 61.3525C45.5186 61.3525 46.7497 60.5836 47.6361 59.0457C48.53 57.5078 48.977 55.2843 48.977 52.3752C48.977 50.4434 48.7724 48.8108 48.3633 47.4775C47.9618 46.1366 47.3823 45.1215 46.6247 44.4321C45.8747 43.7351 44.9808 43.3866 43.9429 43.3866C42.3747 43.3866 41.1436 44.1593 40.2497 45.7048C39.3558 47.2502 38.905 49.4737 38.8974 52.3752C38.8974 54.3146 39.0982 55.9548 39.4997 57.2957C39.9088 58.629 40.4883 59.6404 41.2383 60.3298C41.9883 61.0116 42.8899 61.3525 43.9429 61.3525ZM55.2169 64.0002V61.4548L63.0919 53.2957C63.9328 52.4093 64.626 51.6328 65.1714 50.9662C65.7244 50.2919 66.1373 49.6518 66.41 49.0457C66.6828 48.4396 66.8191 47.7957 66.8191 47.1139C66.8191 46.3412 66.6373 45.6745 66.2737 45.1139C65.91 44.5457 65.4138 44.1101 64.785 43.8071C64.1563 43.4965 63.4479 43.3412 62.66 43.3412C61.8267 43.3412 61.0994 43.5116 60.4782 43.8525C59.857 44.1934 59.3797 44.6745 59.0464 45.2957C58.7131 45.9169 58.5464 46.6442 58.5464 47.4775H55.1941C55.1941 46.0608 55.5199 44.8222 56.1714 43.7616C56.8229 42.701 57.7169 41.879 58.8532 41.2957C59.9896 40.7048 61.2813 40.4093 62.7282 40.4093C64.1904 40.4093 65.4782 40.701 66.5919 41.2843C67.7131 41.8601 68.5881 42.648 69.2169 43.648C69.8457 44.6404 70.16 45.7616 70.16 47.0116C70.16 47.8752 69.9972 48.7199 69.6714 49.5457C69.3532 50.3715 68.7964 51.2919 68.001 52.3071C67.2055 53.3146 66.0994 54.5381 64.6828 55.9775L60.0578 60.8184V60.9889H70.535V64.0002H55.2169Z"/>
</mask>
<path d="M43.9429 64.3866C42.1474 64.379 40.6133 63.9055 39.3406 62.9662C38.0679 62.0268 37.0944 60.6593 36.4202 58.8639C35.7459 57.0684 35.4088 54.9055 35.4088 52.3752C35.4088 49.8525 35.7459 47.6972 36.4202 45.9093C37.102 44.1215 38.0793 42.7578 39.352 41.8184C40.6323 40.879 42.1626 40.4093 43.9429 40.4093C45.7232 40.4093 47.2497 40.8828 48.5224 41.8298C49.7952 42.7692 50.7686 44.1328 51.4429 45.9207C52.1247 47.701 52.4656 49.8525 52.4656 52.3752C52.4656 54.9131 52.1285 57.0798 51.4543 58.8752C50.78 60.6631 49.8065 62.0305 48.5338 62.9775C47.2611 63.9169 45.7308 64.3866 43.9429 64.3866ZM43.9429 61.3525C45.5186 61.3525 46.7497 60.5836 47.6361 59.0457C48.53 57.5078 48.977 55.2843 48.977 52.3752C48.977 50.4434 48.7724 48.8108 48.3633 47.4775C47.9618 46.1366 47.3823 45.1215 46.6247 44.4321C45.8747 43.7351 44.9808 43.3866 43.9429 43.3866C42.3747 43.3866 41.1436 44.1593 40.2497 45.7048C39.3558 47.2502 38.905 49.4737 38.8974 52.3752C38.8974 54.3146 39.0982 55.9548 39.4997 57.2957C39.9088 58.629 40.4883 59.6404 41.2383 60.3298C41.9883 61.0116 42.8899 61.3525 43.9429 61.3525ZM55.2169 64.0002V61.4548L63.0919 53.2957C63.9328 52.4093 64.626 51.6328 65.1714 50.9662C65.7244 50.2919 66.1373 49.6518 66.41 49.0457C66.6828 48.4396 66.8191 47.7957 66.8191 47.1139C66.8191 46.3412 66.6373 45.6745 66.2737 45.1139C65.91 44.5457 65.4138 44.1101 64.785 43.8071C64.1563 43.4965 63.4479 43.3412 62.66 43.3412C61.8267 43.3412 61.0994 43.5116 60.4782 43.8525C59.857 44.1934 59.3797 44.6745 59.0464 45.2957C58.7131 45.9169 58.5464 46.6442 58.5464 47.4775H55.1941C55.1941 46.0608 55.5199 44.8222 56.1714 43.7616C56.8229 42.701 57.7169 41.879 58.8532 41.2957C59.9896 40.7048 61.2813 40.4093 62.7282 40.4093C64.1904 40.4093 65.4782 40.701 66.5919 41.2843C67.7131 41.8601 68.5881 42.648 69.2169 43.648C69.8457 44.6404 70.16 45.7616 70.16 47.0116C70.16 47.8752 69.9972 48.7199 69.6714 49.5457C69.3532 50.3715 68.7964 51.2919 68.001 52.3071C67.2055 53.3146 66.0994 54.5381 64.6828 55.9775L60.0578 60.8184V60.9889H70.535V64.0002H55.2169Z" fill="white"/>
<path d="M43.9429 64.3866L43.9387 65.3866H43.9429V64.3866ZM36.4202 58.8639L37.3563 58.5123L36.4202 58.8639ZM36.4202 45.9093L35.4858 45.553L35.4845 45.5565L36.4202 45.9093ZM39.352 41.8184L38.7604 41.0122L38.7581 41.0139L39.352 41.8184ZM48.5224 41.8298L47.9255 42.6321L47.9286 42.6344L48.5224 41.8298ZM51.4429 45.9207L50.5072 46.2736L50.509 46.2783L51.4429 45.9207ZM51.4543 58.8752L52.3899 59.2281L52.3904 59.2268L51.4543 58.8752ZM48.5338 62.9775L49.1277 63.7821L49.1307 63.7798L48.5338 62.9775ZM47.6361 59.0457L46.7715 58.5431L46.7697 58.5463L47.6361 59.0457ZM48.3633 47.4775L47.4053 47.7644L47.4073 47.7708L48.3633 47.4775ZM46.6247 44.4321L45.9439 45.1646L45.9517 45.1717L46.6247 44.4321ZM40.2497 45.7048L39.3841 45.2041L40.2497 45.7048ZM38.8974 52.3752L37.8974 52.3726V52.3752H38.8974ZM39.4997 57.2957L38.5417 57.5826L38.5437 57.589L39.4997 57.2957ZM41.2383 60.3298L40.5616 61.066L40.5657 61.0697L41.2383 60.3298ZM43.9471 63.3866C42.3341 63.3798 41.0138 62.9582 39.9345 62.1616L38.7468 63.7707C40.2129 64.8529 41.9608 65.3783 43.9387 65.3866L43.9471 63.3866ZM39.9345 62.1616C38.8475 61.3593 37.9772 60.1656 37.3563 58.5123L35.484 59.2154C36.2116 61.153 37.2883 62.6942 38.7468 63.7707L39.9345 62.1616ZM37.3563 58.5123C36.7354 56.8588 36.4088 54.8217 36.4088 52.3752H34.4088C34.4088 54.9894 34.7565 57.2781 35.484 59.2154L37.3563 58.5123ZM36.4088 52.3752C36.4088 49.9366 36.7353 47.9076 37.3558 46.2622L35.4845 45.5565C34.7565 47.4868 34.4088 49.7684 34.4088 52.3752H36.4088ZM37.3545 46.2657C37.9825 44.6189 38.8568 43.4268 39.9458 42.623L38.7581 41.0139C37.3017 42.0888 36.2214 43.624 35.4858 45.553L37.3545 46.2657ZM39.9436 42.6247C41.0318 41.8262 42.3484 41.4093 43.9429 41.4093V39.4093C41.9768 39.4093 40.2328 39.9318 38.7604 41.0122L39.9436 42.6247ZM43.9429 41.4093C45.5357 41.4093 46.8462 41.829 47.9255 42.6321L49.1194 41.0275C47.6532 39.9366 45.9107 39.4093 43.9429 39.4093V41.4093ZM47.9286 42.6344C49.0166 43.4374 49.8867 44.6282 50.5072 46.2736L52.3786 45.5678C51.6506 43.6375 50.5737 42.101 49.1163 41.0252L47.9286 42.6344ZM50.509 46.2783C51.1355 47.9142 51.4656 49.9375 51.4656 52.3752H53.4656C53.4656 49.7676 53.1139 47.4878 52.3767 45.5631L50.509 46.2783ZM51.4656 52.3752C51.4656 54.8297 51.1389 56.8704 50.5181 58.5237L52.3904 59.2268C53.1181 57.2891 53.4656 54.9966 53.4656 52.3752H51.4656ZM50.5186 58.5224C49.8979 60.1681 49.0271 61.3641 47.9369 62.1752L49.1307 63.7798C50.586 62.697 51.6621 61.1581 52.3899 59.2281L50.5186 58.5224ZM47.9399 62.1729C46.8612 62.9691 45.5461 63.3866 43.9429 63.3866V65.3866C45.9154 65.3866 47.6609 64.8647 49.1277 63.7821L47.9399 62.1729ZM43.9429 62.3525C45.9275 62.3525 47.4648 61.3455 48.5025 59.5451L46.7697 58.5463C46.0346 59.8216 45.1098 60.3525 43.9429 60.3525V62.3525ZM48.5006 59.5482C49.5229 57.7896 49.977 55.3605 49.977 52.3752H47.977C47.977 55.2081 47.5372 57.226 46.7715 58.5432L48.5006 59.5482ZM49.977 52.3752C49.977 50.3793 49.7664 48.6413 49.3194 47.1842L47.4073 47.7708C47.7785 48.9804 47.977 50.5076 47.977 52.3752H49.977ZM49.3213 47.1907C48.8861 45.7371 48.2302 44.541 47.2977 43.6925L45.9517 45.1717C46.5344 45.7019 47.0376 46.5361 47.4054 47.7644L49.3213 47.1907ZM47.3054 43.6995C46.3677 42.828 45.2295 42.3866 43.9429 42.3866V44.3866C44.7321 44.3866 45.3818 44.6421 45.944 45.1646L47.3054 43.6995ZM43.9429 42.3866C41.9621 42.3866 40.4271 43.401 39.3841 45.2041L41.1153 46.2055C41.8602 44.9177 42.7873 44.3866 43.9429 44.3866V42.3866ZM39.3841 45.2041C38.3639 46.9677 37.9052 49.3942 37.8974 52.3726L39.8974 52.3779C39.9048 49.5533 40.3476 47.5327 41.1153 46.2055L39.3841 45.2041ZM37.8974 52.3752C37.8974 54.3773 38.1039 56.1205 38.5417 57.5826L40.4577 57.0088C40.0924 55.7891 39.8974 54.252 39.8974 52.3752H37.8974ZM38.5437 57.589C38.9864 59.0321 39.6412 60.22 40.5616 61.066L41.9151 59.5936C41.3355 59.0608 40.8312 58.226 40.4557 57.0024L38.5437 57.589ZM40.5657 61.0697C41.5075 61.9259 42.6517 62.3525 43.9429 62.3525V60.3525C43.128 60.3525 42.4692 60.0973 41.911 59.5898L40.5657 61.0697ZM55.2169 64.0002H54.2169V65.0002H55.2169V64.0002ZM55.2169 61.4548L54.4973 60.7603L54.2169 61.0509V61.4548H55.2169ZM63.0919 53.2957L63.8114 53.9902L63.8173 53.984L63.0919 53.2957ZM65.1714 50.9662L64.3982 50.332L64.3975 50.3329L65.1714 50.9662ZM66.2737 45.1139L65.4314 45.6529L65.4347 45.6581L66.2737 45.1139ZM64.785 43.8071L64.3421 44.7037L64.3509 44.7079L64.785 43.8071ZM58.5464 47.4775V48.4775H59.5464V47.4775H58.5464ZM55.1941 47.4775H54.1941V48.4775H55.1941V47.4775ZM56.1714 43.7616L57.0235 44.285L56.1714 43.7616ZM58.8532 41.2957L59.3099 42.1853L59.3146 42.1829L58.8532 41.2957ZM66.5919 41.2843L66.1278 42.1702L66.1351 42.1739L66.5919 41.2843ZM69.2169 43.648L68.3703 44.1803L68.3721 44.1832L69.2169 43.648ZM69.6714 49.5457L68.7411 49.1787L68.7383 49.1861L69.6714 49.5457ZM68.001 52.3071L68.7858 52.9267L68.7881 52.9238L68.001 52.3071ZM64.6828 55.9775L63.9701 55.2761L63.9649 55.2813L63.9597 55.2867L64.6828 55.9775ZM60.0578 60.8184L59.3347 60.1276L59.0578 60.4175V60.8184H60.0578ZM60.0578 60.9889H59.0578V61.9889H60.0578V60.9889ZM70.535 60.9889H71.535V59.9889H70.535V60.9889ZM70.535 64.0002V65.0002H71.535V64.0002H70.535ZM56.2169 64.0002V61.4548H54.2169V64.0002H56.2169ZM55.9364 62.1493L63.8114 53.9902L62.3723 52.6012L54.4973 60.7603L55.9364 62.1493ZM63.8173 53.984C64.6687 53.0865 65.3795 52.291 65.9454 51.5994L64.3975 50.3329C63.8724 50.9747 63.1968 51.7321 62.3664 52.6074L63.8173 53.984ZM65.9446 51.6003C66.5372 50.8778 67.0038 50.163 67.322 49.4561L65.4981 48.6353C65.2708 49.1405 64.9117 49.706 64.3982 50.332L65.9446 51.6003ZM67.322 49.4561C67.6543 48.7176 67.8191 47.9334 67.8191 47.1139H65.8191C65.8191 47.658 65.7113 48.1617 65.4981 48.6353L67.322 49.4561ZM67.8191 47.1139C67.8191 46.1789 67.597 45.3165 67.1126 44.5697L65.4347 45.6581C65.6776 46.0325 65.8191 46.5034 65.8191 47.1139H67.8191ZM67.116 44.5748C66.6488 43.845 66.0088 43.2868 65.2192 42.9062L64.3509 44.7079C64.8188 44.9334 65.1712 45.2464 65.4314 45.6529L67.116 44.5748ZM65.2279 42.9105C64.4452 42.5239 63.5824 42.3412 62.66 42.3412V44.3412C63.3134 44.3412 63.8673 44.4691 64.3422 44.7036L65.2279 42.9105ZM62.66 42.3412C61.6882 42.3412 60.7898 42.5409 59.9971 42.9758L60.9593 44.7292C61.4091 44.4824 61.9652 44.3412 62.66 44.3412V42.3412ZM59.9971 42.9758C59.2072 43.4093 58.5906 44.0303 58.1653 44.8229L59.9276 45.7685C60.1689 45.3187 60.5068 44.9775 60.9593 44.7292L59.9971 42.9758ZM58.1653 44.8229C57.7408 45.6138 57.5464 46.5092 57.5464 47.4775H59.5464C59.5464 46.7792 59.6853 46.22 59.9276 45.7685L58.1653 44.8229ZM58.5464 46.4775H55.1941V48.4775H58.5464V46.4775ZM56.1941 47.4775C56.1941 46.2195 56.4815 45.1673 57.0235 44.285L55.3193 43.2382C54.5583 44.4771 54.1941 45.9022 54.1941 47.4775H56.1941ZM57.0235 44.285C57.5766 43.3846 58.3319 42.6874 59.3099 42.1853L58.3966 40.4061C57.1018 41.0707 56.0693 42.0174 55.3193 43.2382L57.0235 44.285ZM59.3146 42.1829C60.2909 41.6752 61.4208 41.4093 62.7282 41.4093V39.4093C61.1417 39.4093 59.6883 39.7343 58.3919 40.4085L59.3146 42.1829ZM62.7282 41.4093C64.0551 41.4093 65.1791 41.6732 66.1279 42.1702L67.0559 40.3985C65.7774 39.7288 64.3256 39.4093 62.7282 39.4093V41.4093ZM66.1351 42.1739C67.1078 42.6734 67.8435 43.3424 68.3703 44.1803L70.0634 43.1157C69.3327 41.9535 68.3184 41.0468 67.0487 40.3948L66.1351 42.1739ZM68.3721 44.1832C68.8929 45.0051 69.16 45.9384 69.16 47.0116H71.16C71.16 45.5848 70.7984 44.2757 70.0616 43.1128L68.3721 44.1832ZM69.16 47.0116C69.16 47.7461 69.0221 48.4665 68.7412 49.1787L70.6016 49.9127C70.9722 48.9734 71.16 48.0044 71.16 47.0116H69.16ZM68.7383 49.1861C68.468 49.8877 67.9734 50.7209 67.2138 51.6903L68.7881 52.9238C69.6194 51.8629 70.2385 50.8553 70.6045 49.9053L68.7383 49.1861ZM67.2161 51.6874C66.4521 52.6551 65.3739 53.8497 63.9701 55.2761L65.3955 56.679C66.825 55.2265 67.9589 53.9742 68.7858 52.9267L67.2161 51.6874ZM63.9597 55.2867L59.3347 60.1276L60.7808 61.5092L65.4058 56.6683L63.9597 55.2867ZM59.0578 60.8184V60.9889H61.0578V60.8184H59.0578ZM60.0578 61.9889H70.535V59.9889H60.0578V61.9889ZM69.535 60.9889V64.0002H71.535V60.9889H69.535ZM70.535 63.0002H55.2169V65.0002H70.535V63.0002Z" fill="black" mask="url(#path-2-outside-1_16_743)"/>
<path d="M101.299 39.9695C93.7935 22.5529 85.2123 12.1414 73.4569 6.25945C43.1404 -8.90974 23.9606 12.4396 14.0613 23.6763C4.16207 34.913 -5.73718 62.4428 6.63689 79.2979C19.011 96.1529 29.5289 104.019 44.3778 102.895C59.2267 101.771 70.982 95.5911 88.3057 82.6689C105.629 69.7467 106.867 52.8917 101.299 39.9695Z" stroke="black" stroke-width="1.5" stroke-linecap="round" stroke-dasharray="5 5"/>
</svg>
