<svg width="104" height="104" viewBox="0 0 104 104" fill="none" xmlns="http://www.w3.org/2000/svg">
<path d="M14.3787 31.8736C22.1895 14.3732 38.9161 4.30755 58.0274 7.87323C74.1086 10.8736 82.8697 19.6478 91.1084 31.8734C101.217 46.8732 95.703 61.8734 87.4327 68.3734C79.1625 74.8734 61.9074 88.3427 51.5949 93.3734C38.2707 99.8732 22.4449 94.8732 13.4598 78.8734C3.35155 60.8735 7.457 47.3821 14.3787 31.8736Z" fill="#D93749" stroke="#D93749"/>
<mask id="path-2-outside-1_16_925" maskUnits="userSpaceOnUse" x="32.29" y="39.1592" width="38" height="27" fill="black">
<rect fill="white" x="32.29" y="39.1592" width="38" height="27"/>
<path d="M42.3465 64.5455C40.5511 64.538 39.017 64.0645 37.7443 63.1251C36.4715 62.1857 35.4981 60.8183 34.8238 59.0228C34.1496 57.2274 33.8124 55.0645 33.8124 52.5342C33.8124 50.0115 34.1496 47.8561 34.8238 46.0683C35.5056 44.2804 36.4829 42.9168 37.7556 41.9774C39.0359 41.038 40.5662 40.5683 42.3465 40.5683C44.1268 40.5683 45.6534 41.0418 46.9261 41.9887C48.1988 42.9281 49.1723 44.2918 49.8465 46.0796C50.5284 47.8599 50.8693 50.0115 50.8693 52.5342C50.8693 55.0721 50.5321 57.2387 49.8579 59.0342C49.1837 60.8221 48.2102 62.1895 46.9374 63.1365C45.6647 64.0758 44.1344 64.5455 42.3465 64.5455ZM42.3465 61.5115C43.9223 61.5115 45.1534 60.7425 46.0397 59.2046C46.9337 57.6668 47.3806 55.4433 47.3806 52.5342C47.3806 50.6024 47.1761 48.9698 46.767 47.6365C46.3655 46.2955 45.7859 45.2804 45.0284 44.591C44.2784 43.894 43.3844 43.5455 42.3465 43.5455C40.7784 43.5455 39.5473 44.3183 38.6534 45.8637C37.7594 47.4092 37.3087 49.6327 37.3011 52.5342C37.3011 54.4736 37.5018 56.1137 37.9034 57.4546C38.3124 58.788 38.892 59.7993 39.642 60.4887C40.392 61.1705 41.2935 61.5115 42.3465 61.5115ZM53.6205 64.1592V61.6137L61.4955 53.4546C62.3364 52.5683 63.0296 51.7918 63.5751 51.1251C64.1281 50.4508 64.541 49.8107 64.8137 49.2046C65.0864 48.5986 65.2228 47.9546 65.2228 47.2728C65.2228 46.5001 65.041 45.8334 64.6773 45.2728C64.3137 44.7046 63.8175 44.269 63.1887 43.966C62.5599 43.6554 61.8516 43.5001 61.0637 43.5001C60.2304 43.5001 59.5031 43.6705 58.8819 44.0115C58.2607 44.3524 57.7834 44.8334 57.4501 45.4546C57.1167 46.0758 56.9501 46.8031 56.9501 47.6365H53.5978C53.5978 46.2198 53.9235 44.9811 54.5751 43.9205C55.2266 42.8599 56.1205 42.038 57.2569 41.4546C58.3932 40.8637 59.6849 40.5683 61.1319 40.5683C62.594 40.5683 63.8819 40.8599 64.9955 41.4433C66.1167 42.019 66.9917 42.8069 67.6205 43.8069C68.2493 44.7993 68.5637 45.9205 68.5637 47.1705C68.5637 48.0342 68.4008 48.8789 68.0751 49.7046C67.7569 50.5304 67.2001 51.4508 66.4046 52.466C65.6091 53.4736 64.5031 54.6971 63.0864 56.1365L58.4614 60.9774V61.1478H68.9387V64.1592H53.6205Z"/>
</mask>
<path d="M42.3465 64.5455C40.5511 64.538 39.017 64.0645 37.7443 63.1251C36.4715 62.1857 35.4981 60.8183 34.8238 59.0228C34.1496 57.2274 33.8124 55.0645 33.8124 52.5342C33.8124 50.0115 34.1496 47.8561 34.8238 46.0683C35.5056 44.2804 36.4829 42.9168 37.7556 41.9774C39.0359 41.038 40.5662 40.5683 42.3465 40.5683C44.1268 40.5683 45.6534 41.0418 46.9261 41.9887C48.1988 42.9281 49.1723 44.2918 49.8465 46.0796C50.5284 47.8599 50.8693 50.0115 50.8693 52.5342C50.8693 55.0721 50.5321 57.2387 49.8579 59.0342C49.1837 60.8221 48.2102 62.1895 46.9374 63.1365C45.6647 64.0758 44.1344 64.5455 42.3465 64.5455ZM42.3465 61.5115C43.9223 61.5115 45.1534 60.7425 46.0397 59.2046C46.9337 57.6668 47.3806 55.4433 47.3806 52.5342C47.3806 50.6024 47.1761 48.9698 46.767 47.6365C46.3655 46.2955 45.7859 45.2804 45.0284 44.591C44.2784 43.894 43.3844 43.5455 42.3465 43.5455C40.7784 43.5455 39.5473 44.3183 38.6534 45.8637C37.7594 47.4092 37.3087 49.6327 37.3011 52.5342C37.3011 54.4736 37.5018 56.1137 37.9034 57.4546C38.3124 58.788 38.892 59.7993 39.642 60.4887C40.392 61.1705 41.2935 61.5115 42.3465 61.5115ZM53.6205 64.1592V61.6137L61.4955 53.4546C62.3364 52.5683 63.0296 51.7918 63.5751 51.1251C64.1281 50.4508 64.541 49.8107 64.8137 49.2046C65.0864 48.5986 65.2228 47.9546 65.2228 47.2728C65.2228 46.5001 65.041 45.8334 64.6773 45.2728C64.3137 44.7046 63.8175 44.269 63.1887 43.966C62.5599 43.6554 61.8516 43.5001 61.0637 43.5001C60.2304 43.5001 59.5031 43.6705 58.8819 44.0115C58.2607 44.3524 57.7834 44.8334 57.4501 45.4546C57.1167 46.0758 56.9501 46.8031 56.9501 47.6365H53.5978C53.5978 46.2198 53.9235 44.9811 54.5751 43.9205C55.2266 42.8599 56.1205 42.038 57.2569 41.4546C58.3932 40.8637 59.6849 40.5683 61.1319 40.5683C62.594 40.5683 63.8819 40.8599 64.9955 41.4433C66.1167 42.019 66.9917 42.8069 67.6205 43.8069C68.2493 44.7993 68.5637 45.9205 68.5637 47.1705C68.5637 48.0342 68.4008 48.8789 68.0751 49.7046C67.7569 50.5304 67.2001 51.4508 66.4046 52.466C65.6091 53.4736 64.5031 54.6971 63.0864 56.1365L58.4614 60.9774V61.1478H68.9387V64.1592H53.6205Z" fill="white"/>
<path d="M42.3465 64.5455L42.3423 65.5455H42.3465V64.5455ZM34.8238 59.0228L35.76 58.6713L34.8238 59.0228ZM34.8238 46.0683L33.8894 45.7119L33.8881 45.7154L34.8238 46.0683ZM37.7556 41.9774L37.1641 41.1711L37.1618 41.1728L37.7556 41.9774ZM46.9261 41.9887L46.3291 42.791L46.3322 42.7933L46.9261 41.9887ZM49.8465 46.0796L48.9108 46.4325L48.9127 46.4373L49.8465 46.0796ZM49.8579 59.0342L50.7936 59.387L50.7941 59.3857L49.8579 59.0342ZM46.9374 63.1365L47.5313 63.941L47.5344 63.9387L46.9374 63.1365ZM46.0397 59.2046L45.1752 58.7021L45.1733 58.7053L46.0397 59.2046ZM46.767 47.6365L45.809 47.9233L45.811 47.9298L46.767 47.6365ZM45.0284 44.591L44.3476 45.3236L44.3553 45.3306L45.0284 44.591ZM38.6534 45.8637L37.7877 45.363L38.6534 45.8637ZM37.3011 52.5342L36.3011 52.5316V52.5342H37.3011ZM37.9034 57.4546L36.9454 57.7415L36.9473 57.748L37.9034 57.4546ZM39.642 60.4887L38.9652 61.225L38.9693 61.2287L39.642 60.4887ZM42.3508 63.5456C40.7377 63.5387 39.4174 63.1172 38.3381 62.3205L37.1504 63.9297C38.6165 65.0118 40.3645 65.5372 42.3423 65.5455L42.3508 63.5456ZM38.3381 62.3205C37.2511 61.5182 36.3808 60.3246 35.76 58.6713L33.8876 59.3744C34.6153 61.312 35.6919 62.8532 37.1504 63.9297L38.3381 62.3205ZM35.76 58.6713C35.139 57.0177 34.8124 54.9806 34.8124 52.5342H32.8124C32.8124 55.1484 33.1601 57.437 33.8876 59.3744L35.76 58.6713ZM34.8124 52.5342C34.8124 50.0955 35.139 48.0665 35.7595 46.4211L33.8881 45.7154C33.1602 47.6458 32.8124 49.9274 32.8124 52.5342H34.8124ZM35.7582 46.4246C36.3862 44.7778 37.2605 43.5857 38.3495 42.7819L37.1618 41.1728C35.7053 42.2478 34.6251 43.783 33.8894 45.7119L35.7582 46.4246ZM38.3472 42.7836C39.4354 41.9852 40.752 41.5683 42.3465 41.5683V39.5683C40.3804 39.5683 38.6365 40.0908 37.1641 41.1711L38.3472 42.7836ZM42.3465 41.5683C43.9393 41.5683 45.2498 41.988 46.3291 42.791L47.523 41.1864C46.0569 40.0956 44.3143 39.5683 42.3465 39.5683V41.5683ZM46.3322 42.7933C47.4202 43.5963 48.2904 44.7871 48.9109 46.4325L50.7822 45.7268C50.0542 43.7964 48.9774 42.2599 47.5199 41.1841L46.3322 42.7933ZM48.9127 46.4373C49.5392 48.0731 49.8693 50.0964 49.8693 52.5342H51.8693C51.8693 49.9265 51.5175 47.6468 50.7804 45.722L48.9127 46.4373ZM49.8693 52.5342C49.8693 54.9886 49.5426 57.0294 48.9217 58.6826L50.7941 59.3857C51.5217 57.4481 51.8693 55.1555 51.8693 52.5342H49.8693ZM48.9222 58.6813C48.3016 60.327 47.4307 61.523 46.3405 62.3342L47.5344 63.9387C48.9896 62.856 50.0657 61.3171 50.7936 59.387L48.9222 58.6813ZM46.3436 62.3319C45.2649 63.1281 43.9498 63.5455 42.3465 63.5455V65.5455C44.3191 65.5455 46.0646 65.0236 47.5313 63.941L46.3436 62.3319ZM42.3465 62.5115C44.3311 62.5115 45.8684 61.5044 46.9061 59.704L45.1733 58.7053C44.4383 59.9806 43.5134 60.5115 42.3465 60.5115V62.5115ZM46.9043 59.7072C47.9265 57.9486 48.3806 55.5195 48.3806 52.5342H46.3806C46.3806 55.3671 45.9408 57.3849 45.1752 58.7021L46.9043 59.7072ZM48.3806 52.5342C48.3806 50.5382 48.1701 48.8002 47.723 47.3431L45.811 47.9298C46.1821 49.1394 46.3806 50.6665 46.3806 52.5342H48.3806ZM47.725 47.3496C47.2897 45.896 46.6339 44.6999 45.7014 43.8514L44.3553 45.3306C44.938 45.8608 45.4412 46.695 45.809 47.9233L47.725 47.3496ZM45.7091 43.8585C44.7713 42.987 43.6331 42.5455 42.3465 42.5455V44.5455C43.1357 44.5455 43.7854 44.8011 44.3476 45.3235L45.7091 43.8585ZM42.3465 42.5455C40.3658 42.5455 38.8307 43.5599 37.7877 45.363L39.519 46.3644C40.2639 45.0766 41.1909 44.5455 42.3465 44.5455V42.5455ZM37.7877 45.363C36.7676 47.1267 36.3089 49.5531 36.3011 52.5316L38.3011 52.5368C38.3085 49.7122 38.7512 47.6917 39.519 46.3644L37.7877 45.363ZM36.3011 52.5342C36.3011 54.5362 36.5076 56.2794 36.9454 57.7415L38.8613 57.1678C38.4961 55.948 38.3011 54.4109 38.3011 52.5342H36.3011ZM36.9473 57.748C37.3901 59.191 38.0449 60.3789 38.9653 61.225L40.3187 59.7525C39.7391 59.2197 39.2348 58.3849 38.8594 57.1613L36.9473 57.748ZM38.9693 61.2287C39.9111 62.0848 41.0554 62.5115 42.3465 62.5115V60.5115C41.5316 60.5115 40.8729 60.2562 40.3147 59.7488L38.9693 61.2287ZM53.6205 64.1592H52.6205V65.1592H53.6205V64.1592ZM53.6205 61.6137L52.901 60.9193L52.6205 61.2099V61.6137H53.6205ZM61.4955 53.4546L62.2151 54.1491L62.221 54.1429L61.4955 53.4546ZM63.5751 51.1251L62.8019 50.4909L62.8011 50.4918L63.5751 51.1251ZM64.6773 45.2728L63.835 45.8119L63.8384 45.817L64.6773 45.2728ZM63.1887 43.966L62.7458 44.8626L62.7546 44.8668L63.1887 43.966ZM56.9501 47.6365V48.6365H57.9501V47.6365H56.9501ZM53.5978 47.6365H52.5978V48.6365H53.5978V47.6365ZM54.5751 43.9205L55.4271 44.444L54.5751 43.9205ZM57.2569 41.4546L57.7136 42.3443L57.7182 42.3419L57.2569 41.4546ZM64.9955 41.4433L64.5315 42.3291L64.5387 42.3328L64.9955 41.4433ZM67.6205 43.8069L66.774 44.3392L66.7758 44.3421L67.6205 43.8069ZM68.0751 49.7046L67.1448 49.3377L67.1419 49.3451L68.0751 49.7046ZM66.4046 52.466L67.1895 53.0856L67.1917 53.0828L66.4046 52.466ZM63.0864 56.1365L62.3737 55.435L62.3685 55.4403L62.3634 55.4457L63.0864 56.1365ZM58.4614 60.9774L57.7384 60.2866L57.4614 60.5764V60.9774H58.4614ZM58.4614 61.1478H57.4614V62.1478H58.4614V61.1478ZM68.9387 61.1478H69.9387V60.1478H68.9387V61.1478ZM68.9387 64.1592V65.1592H69.9387V64.1592H68.9387ZM54.6205 64.1592V61.6137H52.6205V64.1592H54.6205ZM54.34 62.3082L62.215 54.1491L60.776 52.7602L52.901 60.9193L54.34 62.3082ZM62.221 54.1429C63.0724 53.2455 63.7832 52.4499 64.349 51.7583L62.8011 50.4918C62.276 51.1336 61.6005 51.8911 60.7701 52.7664L62.221 54.1429ZM64.3482 51.7593C64.9409 51.0368 65.4075 50.322 65.7256 49.615L63.9018 48.7943C63.6744 49.2994 63.3153 49.8649 62.8019 50.4909L64.3482 51.7593ZM65.7256 49.615C66.0579 48.8765 66.2228 48.0923 66.2228 47.2728H64.2228C64.2228 47.8169 64.1149 48.3206 63.9018 48.7943L65.7256 49.615ZM66.2228 47.2728C66.2228 46.3379 66.0007 45.4754 65.5163 44.7286L63.8384 45.817C64.0813 46.1914 64.2228 46.6623 64.2228 47.2728H66.2228ZM65.5196 44.7338C65.0525 44.0039 64.4125 43.4457 63.6228 43.0652L62.7546 44.8668C63.2225 45.0924 63.5749 45.4054 63.8351 45.8119L65.5196 44.7338ZM63.6316 43.0694C62.8489 42.6828 61.9861 42.5001 61.0637 42.5001V44.5001C61.7171 44.5001 62.2709 44.628 62.7458 44.8626L63.6316 43.0694ZM61.0637 42.5001C60.0919 42.5001 59.1934 42.6998 58.4008 43.1348L59.363 44.8881C59.8127 44.6413 60.3689 44.5001 61.0637 44.5001V42.5001ZM58.4008 43.1348C57.6109 43.5683 56.9942 44.1892 56.5689 44.9818L58.3312 45.9275C58.5726 45.4776 58.9104 45.1365 59.363 44.8881L58.4008 43.1348ZM56.5689 44.9818C56.1445 45.7728 55.9501 46.6681 55.9501 47.6365H57.9501C57.9501 46.9381 58.089 46.3789 58.3312 45.9275L56.5689 44.9818ZM56.9501 46.6365H53.5978V48.6365H56.9501V46.6365ZM54.5978 47.6365C54.5978 46.3785 54.8852 45.3263 55.4271 44.444L53.723 43.3971C52.9619 44.636 52.5978 46.0611 52.5978 47.6365H54.5978ZM55.4271 44.444C55.9802 43.5436 56.7355 42.8463 57.7136 42.3443L56.8002 40.565C55.5055 41.2296 54.4729 42.1763 53.723 43.3971L55.4271 44.444ZM57.7182 42.3419C58.6945 41.8342 59.8245 41.5683 61.1319 41.5683V39.5683C59.5454 39.5683 58.092 39.8933 56.7955 40.5674L57.7182 42.3419ZM61.1319 41.5683C62.4588 41.5683 63.5827 41.8321 64.5315 42.3291L65.4595 40.5574C64.181 39.8877 62.7292 39.5683 61.1319 39.5683V41.5683ZM64.5387 42.3328C65.5114 42.8323 66.2471 43.5013 66.774 44.3392L68.4671 43.2746C67.7363 42.1125 66.722 41.2057 65.4523 40.5537L64.5387 42.3328ZM66.7758 44.3421C67.2966 45.1641 67.5637 46.0974 67.5637 47.1705H69.5637C69.5637 45.7437 69.202 44.4346 68.4652 43.2717L66.7758 44.3421ZM67.5637 47.1705C67.5637 47.905 67.4258 48.6254 67.1448 49.3377L69.0053 50.0716C69.3758 49.1323 69.5637 48.1633 69.5637 47.1705H67.5637ZM67.1419 49.3451C66.8716 50.0466 66.3771 50.8798 65.6175 51.8492L67.1917 53.0828C68.0231 52.0219 68.6421 51.0142 69.0082 50.0642L67.1419 49.3451ZM65.6197 51.8464C64.8558 52.814 63.7775 54.0087 62.3737 55.435L63.7991 56.8379C65.2287 55.3855 66.3625 54.1331 67.1895 53.0856L65.6197 51.8464ZM62.3634 55.4457L57.7384 60.2866L59.1845 61.6682L63.8095 56.8272L62.3634 55.4457ZM57.4614 60.9774V61.1478H59.4614V60.9774H57.4614ZM58.4614 62.1478H68.9387V60.1478H58.4614V62.1478ZM67.9387 61.1478V64.1592H69.9387V61.1478H67.9387ZM68.9387 63.1592H53.6205V65.1592H68.9387V63.1592Z" fill="#D93749" mask="url(#path-2-outside-1_16_925)"/>
<path d="M8.95033 29.4897C17.8846 9.42873 37.0174 -2.10968 58.8778 1.97771C77.2722 5.41705 87.2937 15.4751 96.7175 29.4894C108.28 46.6839 101.973 63.8788 92.5131 71.3298C83.0531 78.7809 63.316 94.2209 51.52 99.9876C36.2792 107.438 18.1768 101.707 7.89925 83.3661C-3.66307 62.7326 1.03295 47.2672 8.95033 29.4897Z" stroke="#D93749" stroke-width="1.5" stroke-linecap="round" stroke-dasharray="5 5"/>
</svg>
