<svg width="104" height="104" viewBox="0 0 104 104" fill="none" xmlns="http://www.w3.org/2000/svg">
<path d="M14.3787 31.8736C22.1895 14.3732 38.9161 4.30755 58.0274 7.87323C74.1086 10.8736 82.8697 19.6478 91.1084 31.8734C101.217 46.8732 95.703 61.8734 87.4327 68.3734C79.1625 74.8734 61.9074 88.3427 51.5949 93.3734C38.2707 99.8732 22.4449 94.8732 13.4598 78.8734C3.35155 60.8735 7.457 47.3821 14.3787 31.8736Z" fill="black" stroke="black"/>
<mask id="path-2-outside-1_16_955" maskUnits="userSpaceOnUse" x="32.29" y="39.1592" width="39" height="27" fill="black">
<rect fill="white" x="32.29" y="39.1592" width="39" height="27"/>
<path d="M41.8465 64.5455C40.0511 64.538 38.517 64.0645 37.2443 63.1251C35.9715 62.1857 34.9981 60.8183 34.3238 59.0228C33.6496 57.2274 33.3124 55.0645 33.3124 52.5342C33.3124 50.0115 33.6496 47.8561 34.3238 46.0683C35.0056 44.2804 35.9829 42.9168 37.2556 41.9774C38.5359 41.038 40.0662 40.5683 41.8465 40.5683C43.6268 40.5683 45.1534 41.0418 46.4261 41.9887C47.6988 42.9281 48.6723 44.2918 49.3465 46.0796C50.0284 47.8599 50.3693 50.0115 50.3693 52.5342C50.3693 55.0721 50.0321 57.2387 49.3579 59.0342C48.6837 60.8221 47.7102 62.1895 46.4374 63.1365C45.1647 64.0758 43.6344 64.5455 41.8465 64.5455ZM41.8465 61.5115C43.4223 61.5115 44.6534 60.7425 45.5397 59.2046C46.4337 57.6668 46.8806 55.4433 46.8806 52.5342C46.8806 50.6024 46.6761 48.9698 46.267 47.6365C45.8655 46.2955 45.2859 45.2804 44.5284 44.591C43.7784 43.894 42.8844 43.5455 41.8465 43.5455C40.2784 43.5455 39.0473 44.3183 38.1534 45.8637C37.2594 47.4092 36.8087 49.6327 36.8011 52.5342C36.8011 54.4736 37.0018 56.1137 37.4034 57.4546C37.8124 58.788 38.392 59.7993 39.142 60.4887C39.892 61.1705 40.7935 61.5115 41.8465 61.5115ZM61.2228 64.4774C59.6622 64.4774 58.2682 64.2084 57.041 63.6705C55.8213 63.1327 54.8554 62.3865 54.1432 61.4319C53.4387 60.4698 53.0599 59.3561 53.0069 58.091H56.5751C56.6205 58.7804 56.8516 59.3789 57.2682 59.8865C57.6925 60.3865 58.2455 60.7728 58.9273 61.0455C59.6091 61.3183 60.3667 61.4546 61.2001 61.4546C62.1167 61.4546 62.9273 61.2955 63.6319 60.9774C64.344 60.6592 64.9008 60.216 65.3023 59.6478C65.7038 59.0721 65.9046 58.4092 65.9046 57.6592C65.9046 56.8789 65.7038 56.1933 65.3023 55.6024C64.9084 55.0039 64.3288 54.5342 63.5637 54.1933C62.8061 53.8524 61.8895 53.6819 60.8137 53.6819H58.8478V50.8183H60.8137C61.6773 50.8183 62.4349 50.663 63.0864 50.3524C63.7455 50.0418 64.2607 49.6099 64.6319 49.0569C65.0031 48.4963 65.1887 47.841 65.1887 47.091C65.1887 46.3713 65.0258 45.7463 64.7001 45.216C64.3819 44.6781 63.9273 44.2577 63.3364 43.9546C62.7531 43.6516 62.0637 43.5001 61.2682 43.5001C60.5107 43.5001 59.8023 43.6402 59.1432 43.9205C58.4917 44.1933 57.9614 44.5872 57.5523 45.1024C57.1432 45.6099 56.9235 46.2198 56.8932 46.9319H53.4955C53.5334 45.6743 53.9046 44.5683 54.6091 43.6137C55.3213 42.6592 56.2607 41.913 57.4273 41.3751C58.594 40.8372 59.8895 40.5683 61.3137 40.5683C62.8061 40.5683 64.094 40.8599 65.1773 41.4433C66.2682 42.019 67.1091 42.788 67.7001 43.7501C68.2985 44.7122 68.594 45.7652 68.5864 46.9092C68.594 48.2122 68.2304 49.3183 67.4955 50.2274C66.7682 51.1365 65.7985 51.7463 64.5864 52.0569V52.2387C66.1319 52.4736 67.3288 53.0872 68.1773 54.0796C69.0334 55.0721 69.4576 56.3031 69.4501 57.7728C69.4576 59.0531 69.1016 60.2008 68.3819 61.216C67.6698 62.2311 66.6963 63.0304 65.4614 63.6137C64.2266 64.1895 62.8137 64.4774 61.2228 64.4774Z"/>
</mask>
<path d="M41.8465 64.5455C40.0511 64.538 38.517 64.0645 37.2443 63.1251C35.9715 62.1857 34.9981 60.8183 34.3238 59.0228C33.6496 57.2274 33.3124 55.0645 33.3124 52.5342C33.3124 50.0115 33.6496 47.8561 34.3238 46.0683C35.0056 44.2804 35.9829 42.9168 37.2556 41.9774C38.5359 41.038 40.0662 40.5683 41.8465 40.5683C43.6268 40.5683 45.1534 41.0418 46.4261 41.9887C47.6988 42.9281 48.6723 44.2918 49.3465 46.0796C50.0284 47.8599 50.3693 50.0115 50.3693 52.5342C50.3693 55.0721 50.0321 57.2387 49.3579 59.0342C48.6837 60.8221 47.7102 62.1895 46.4374 63.1365C45.1647 64.0758 43.6344 64.5455 41.8465 64.5455ZM41.8465 61.5115C43.4223 61.5115 44.6534 60.7425 45.5397 59.2046C46.4337 57.6668 46.8806 55.4433 46.8806 52.5342C46.8806 50.6024 46.6761 48.9698 46.267 47.6365C45.8655 46.2955 45.2859 45.2804 44.5284 44.591C43.7784 43.894 42.8844 43.5455 41.8465 43.5455C40.2784 43.5455 39.0473 44.3183 38.1534 45.8637C37.2594 47.4092 36.8087 49.6327 36.8011 52.5342C36.8011 54.4736 37.0018 56.1137 37.4034 57.4546C37.8124 58.788 38.392 59.7993 39.142 60.4887C39.892 61.1705 40.7935 61.5115 41.8465 61.5115ZM61.2228 64.4774C59.6622 64.4774 58.2682 64.2084 57.041 63.6705C55.8213 63.1327 54.8554 62.3865 54.1432 61.4319C53.4387 60.4698 53.0599 59.3561 53.0069 58.091H56.5751C56.6205 58.7804 56.8516 59.3789 57.2682 59.8865C57.6925 60.3865 58.2455 60.7728 58.9273 61.0455C59.6091 61.3183 60.3667 61.4546 61.2001 61.4546C62.1167 61.4546 62.9273 61.2955 63.6319 60.9774C64.344 60.6592 64.9008 60.216 65.3023 59.6478C65.7038 59.0721 65.9046 58.4092 65.9046 57.6592C65.9046 56.8789 65.7038 56.1933 65.3023 55.6024C64.9084 55.0039 64.3288 54.5342 63.5637 54.1933C62.8061 53.8524 61.8895 53.6819 60.8137 53.6819H58.8478V50.8183H60.8137C61.6773 50.8183 62.4349 50.663 63.0864 50.3524C63.7455 50.0418 64.2607 49.6099 64.6319 49.0569C65.0031 48.4963 65.1887 47.841 65.1887 47.091C65.1887 46.3713 65.0258 45.7463 64.7001 45.216C64.3819 44.6781 63.9273 44.2577 63.3364 43.9546C62.7531 43.6516 62.0637 43.5001 61.2682 43.5001C60.5107 43.5001 59.8023 43.6402 59.1432 43.9205C58.4917 44.1933 57.9614 44.5872 57.5523 45.1024C57.1432 45.6099 56.9235 46.2198 56.8932 46.9319H53.4955C53.5334 45.6743 53.9046 44.5683 54.6091 43.6137C55.3213 42.6592 56.2607 41.913 57.4273 41.3751C58.594 40.8372 59.8895 40.5683 61.3137 40.5683C62.8061 40.5683 64.094 40.8599 65.1773 41.4433C66.2682 42.019 67.1091 42.788 67.7001 43.7501C68.2985 44.7122 68.594 45.7652 68.5864 46.9092C68.594 48.2122 68.2304 49.3183 67.4955 50.2274C66.7682 51.1365 65.7985 51.7463 64.5864 52.0569V52.2387C66.1319 52.4736 67.3288 53.0872 68.1773 54.0796C69.0334 55.0721 69.4576 56.3031 69.4501 57.7728C69.4576 59.0531 69.1016 60.2008 68.3819 61.216C67.6698 62.2311 66.6963 63.0304 65.4614 63.6137C64.2266 64.1895 62.8137 64.4774 61.2228 64.4774Z" fill="white"/>
<path d="M41.8465 64.5455L41.8423 65.5455H41.8465V64.5455ZM34.3238 59.0228L35.26 58.6713L34.3238 59.0228ZM34.3238 46.0683L33.3894 45.7119L33.3881 45.7154L34.3238 46.0683ZM37.2556 41.9774L36.6641 41.1711L36.6618 41.1728L37.2556 41.9774ZM46.4261 41.9887L45.8291 42.791L45.8322 42.7933L46.4261 41.9887ZM49.3465 46.0796L48.4108 46.4325L48.4127 46.4373L49.3465 46.0796ZM49.3579 59.0342L50.2936 59.387L50.2941 59.3857L49.3579 59.0342ZM46.4374 63.1365L47.0313 63.941L47.0344 63.9387L46.4374 63.1365ZM45.5397 59.2046L44.6752 58.7021L44.6733 58.7053L45.5397 59.2046ZM46.267 47.6365L45.309 47.9233L45.311 47.9298L46.267 47.6365ZM44.5284 44.591L43.8476 45.3236L43.8553 45.3306L44.5284 44.591ZM38.1534 45.8637L37.2877 45.363L38.1534 45.8637ZM36.8011 52.5342L35.8011 52.5316V52.5342H36.8011ZM37.4034 57.4546L36.4454 57.7415L36.4473 57.748L37.4034 57.4546ZM39.142 60.4887L38.4652 61.225L38.4693 61.2287L39.142 60.4887ZM41.8508 63.5456C40.2377 63.5387 38.9174 63.1172 37.8381 62.3205L36.6504 63.9297C38.1165 65.0118 39.8645 65.5372 41.8423 65.5455L41.8508 63.5456ZM37.8381 62.3205C36.7511 61.5182 35.8808 60.3246 35.26 58.6713L33.3876 59.3744C34.1153 61.312 35.1919 62.8532 36.6504 63.9297L37.8381 62.3205ZM35.26 58.6713C34.639 57.0177 34.3124 54.9806 34.3124 52.5342H32.3124C32.3124 55.1484 32.6601 57.437 33.3876 59.3744L35.26 58.6713ZM34.3124 52.5342C34.3124 50.0955 34.639 48.0665 35.2595 46.4211L33.3881 45.7154C32.6602 47.6458 32.3124 49.9274 32.3124 52.5342H34.3124ZM35.2582 46.4246C35.8862 44.7778 36.7605 43.5857 37.8495 42.7819L36.6618 41.1728C35.2053 42.2478 34.1251 43.783 33.3894 45.7119L35.2582 46.4246ZM37.8472 42.7836C38.9354 41.9852 40.252 41.5683 41.8465 41.5683V39.5683C39.8804 39.5683 38.1365 40.0908 36.6641 41.1711L37.8472 42.7836ZM41.8465 41.5683C43.4393 41.5683 44.7498 41.988 45.8291 42.791L47.023 41.1864C45.5569 40.0956 43.8143 39.5683 41.8465 39.5683V41.5683ZM45.8322 42.7933C46.9202 43.5963 47.7904 44.7871 48.4109 46.4325L50.2822 45.7268C49.5542 43.7964 48.4774 42.2599 47.0199 41.1841L45.8322 42.7933ZM48.4127 46.4373C49.0392 48.0731 49.3693 50.0964 49.3693 52.5342H51.3693C51.3693 49.9265 51.0175 47.6468 50.2804 45.722L48.4127 46.4373ZM49.3693 52.5342C49.3693 54.9886 49.0426 57.0294 48.4217 58.6826L50.2941 59.3857C51.0217 57.4481 51.3693 55.1555 51.3693 52.5342H49.3693ZM48.4222 58.6813C47.8016 60.327 46.9307 61.523 45.8405 62.3342L47.0344 63.9387C48.4896 62.856 49.5657 61.3171 50.2936 59.387L48.4222 58.6813ZM45.8436 62.3319C44.7649 63.1281 43.4498 63.5455 41.8465 63.5455V65.5455C43.8191 65.5455 45.5646 65.0236 47.0313 63.941L45.8436 62.3319ZM41.8465 62.5115C43.8311 62.5115 45.3684 61.5044 46.4061 59.704L44.6733 58.7053C43.9383 59.9806 43.0134 60.5115 41.8465 60.5115V62.5115ZM46.4043 59.7072C47.4265 57.9486 47.8806 55.5195 47.8806 52.5342H45.8806C45.8806 55.3671 45.4408 57.3849 44.6752 58.7021L46.4043 59.7072ZM47.8806 52.5342C47.8806 50.5382 47.6701 48.8002 47.223 47.3431L45.311 47.9298C45.6821 49.1394 45.8806 50.6665 45.8806 52.5342H47.8806ZM47.225 47.3496C46.7897 45.896 46.1339 44.6999 45.2014 43.8514L43.8553 45.3306C44.438 45.8608 44.9412 46.695 45.309 47.9233L47.225 47.3496ZM45.2091 43.8585C44.2713 42.987 43.1331 42.5455 41.8465 42.5455V44.5455C42.6357 44.5455 43.2854 44.8011 43.8476 45.3235L45.2091 43.8585ZM41.8465 42.5455C39.8658 42.5455 38.3307 43.5599 37.2877 45.363L39.019 46.3644C39.7639 45.0766 40.6909 44.5455 41.8465 44.5455V42.5455ZM37.2877 45.363C36.2676 47.1267 35.8089 49.5531 35.8011 52.5316L37.8011 52.5368C37.8085 49.7122 38.2512 47.6917 39.019 46.3644L37.2877 45.363ZM35.8011 52.5342C35.8011 54.5362 36.0076 56.2794 36.4454 57.7415L38.3613 57.1678C37.9961 55.948 37.8011 54.4109 37.8011 52.5342H35.8011ZM36.4473 57.748C36.8901 59.191 37.5449 60.3789 38.4653 61.225L39.8187 59.7525C39.2391 59.2197 38.7348 58.3849 38.3594 57.1613L36.4473 57.748ZM38.4693 61.2287C39.4111 62.0848 40.5554 62.5115 41.8465 62.5115V60.5115C41.0316 60.5115 40.3729 60.2562 39.8147 59.7488L38.4693 61.2287ZM57.041 63.6705L56.6375 64.5855L56.6396 64.5864L57.041 63.6705ZM54.1432 61.4319L53.3364 62.0227L53.3417 62.0299L54.1432 61.4319ZM53.0069 58.091V57.091H51.9641L52.0078 58.1329L53.0069 58.091ZM56.5751 58.091L57.5729 58.0252L57.5113 57.091H56.5751V58.091ZM57.2682 59.8865L56.4953 60.5209L56.5005 60.5272L56.5057 60.5334L57.2682 59.8865ZM58.9273 61.0455L59.2987 60.1171L58.9273 61.0455ZM63.6319 60.9774L63.2239 60.0643L63.2203 60.066L63.6319 60.9774ZM65.3023 59.6478L66.119 60.2249L66.1226 60.2198L65.3023 59.6478ZM65.3023 55.6024L64.467 56.1522L64.4711 56.1583L64.4752 56.1644L65.3023 55.6024ZM63.5637 54.1933L63.1533 55.1052L63.1567 55.1067L63.5637 54.1933ZM58.8478 53.6819H57.8478V54.6819H58.8478V53.6819ZM58.8478 50.8183V49.8183H57.8478V50.8183H58.8478ZM63.0864 50.3524L62.6601 49.4478L62.6561 49.4497L63.0864 50.3524ZM64.6319 49.0569L65.4622 49.6142L65.4657 49.609L64.6319 49.0569ZM64.7001 45.216L63.8394 45.7251L63.8436 45.7323L63.848 45.7394L64.7001 45.216ZM63.3364 43.9546L62.8754 44.8421L62.8801 44.8445L63.3364 43.9546ZM59.1432 43.9205L59.5294 44.843L59.5346 44.8408L59.1432 43.9205ZM57.5523 45.1024L58.3309 45.7299L58.3354 45.7242L57.5523 45.1024ZM56.8932 46.9319V47.9319H57.8516L57.8923 46.9744L56.8932 46.9319ZM53.4955 46.9319L52.496 46.9018L52.4649 47.9319H53.4955V46.9319ZM54.6091 43.6137L53.8076 43.0158L53.8046 43.0199L54.6091 43.6137ZM57.4273 41.3751L57.846 42.2832L57.4273 41.3751ZM65.1773 41.4433L64.7032 42.3238L64.7106 42.3277L65.1773 41.4433ZM67.7001 43.7501L66.8479 44.2734L66.8509 44.2783L67.7001 43.7501ZM68.5864 46.9092L67.5864 46.9026L67.5864 46.915L68.5864 46.9092ZM67.4955 50.2274L66.7178 49.5987L66.7146 49.6027L67.4955 50.2274ZM64.5864 52.0569L64.3382 51.0882L63.5864 51.2808V52.0569H64.5864ZM64.5864 52.2387H63.5864V53.0982L64.4362 53.2274L64.5864 52.2387ZM68.1773 54.0796L67.4173 54.7295L67.4201 54.7328L68.1773 54.0796ZM69.4501 57.7728L68.45 57.7677L68.4501 57.7787L69.4501 57.7728ZM68.3819 61.216L67.5661 60.6376L67.5632 60.6417L68.3819 61.216ZM65.4614 63.6137L65.884 64.5201L65.8886 64.5179L65.4614 63.6137ZM61.2228 63.4774C59.7778 63.4774 58.524 63.2287 57.4424 62.7546L56.6396 64.5864C58.0125 65.1882 59.5465 65.4774 61.2228 65.4774V63.4774ZM57.4445 62.7556C56.3633 62.2788 55.5419 61.6344 54.9448 60.8339L53.3417 62.0299C54.1688 63.1385 55.2792 63.9865 56.6375 64.5855L57.4445 62.7556ZM54.95 60.8411C54.37 60.049 54.0513 59.1292 54.006 58.0491L52.0078 58.1329C52.0685 59.5831 52.5074 60.8906 53.3364 62.0227L54.95 60.8411ZM53.0069 59.091H56.5751V57.091H53.0069V59.091ZM55.5772 58.1568C55.6357 59.0431 55.939 59.8432 56.4953 60.5209L58.0412 59.252C57.7642 58.9145 57.6054 58.5177 57.5729 58.0252L55.5772 58.1568ZM56.5057 60.5334C57.0476 61.172 57.7412 61.6481 58.5559 61.974L59.2987 60.1171C58.7499 59.8975 58.3374 59.6009 58.0307 59.2395L56.5057 60.5334ZM58.5559 61.974C59.3707 62.2999 60.2565 62.4546 61.2001 62.4546V60.4546C60.4769 60.4546 59.8476 60.3366 59.2987 60.1171L58.5559 61.974ZM61.2001 62.4546C62.2326 62.4546 63.1878 62.2752 64.0435 61.8887L63.2203 60.066C62.6669 60.3159 62.0008 60.4546 61.2001 60.4546V62.4546ZM64.0398 61.8904C64.8955 61.508 65.6017 60.9569 66.119 60.2249L64.4857 59.0707C64.1999 59.4751 63.7925 59.8103 63.2239 60.0644L64.0398 61.8904ZM66.1226 60.2198C66.6493 59.4645 66.9046 58.599 66.9046 57.6592H64.9046C64.9046 58.2194 64.7584 58.6796 64.4821 59.0758L66.1226 60.2198ZM66.9046 57.6592C66.9046 56.6978 66.654 55.8123 66.1295 55.0403L64.4752 56.1644C64.7537 56.5742 64.9046 57.06 64.9046 57.6592H66.9046ZM66.1376 55.0526C65.6218 54.269 64.8803 53.6851 63.9707 53.2798L63.1567 55.1067C63.7774 55.3832 64.1949 55.7388 64.467 56.1522L66.1376 55.0526ZM63.9741 53.2813C63.0554 52.8679 61.9909 52.6819 60.8137 52.6819V54.6819C61.788 54.6819 62.5569 54.8368 63.1533 55.1052L63.9741 53.2813ZM60.8137 52.6819H58.8478V54.6819H60.8137V52.6819ZM59.8478 53.6819V50.8183H57.8478V53.6819H59.8478ZM58.8478 51.8183H60.8137V49.8183H58.8478V51.8183ZM60.8137 51.8183C61.7973 51.8183 62.707 51.6411 63.5168 51.255L62.6561 49.4497C62.1628 49.6848 61.5573 49.8183 60.8137 49.8183V51.8183ZM63.5127 51.2569C64.3195 50.8767 64.9808 50.3313 65.4622 49.6142L63.8016 48.4996C63.5405 48.8885 63.1715 49.2068 62.6601 49.4478L63.5127 51.2569ZM65.4657 49.609C65.9576 48.8661 66.1887 48.0139 66.1887 47.091H64.1887C64.1887 47.6681 64.0486 48.1265 63.7981 48.5048L65.4657 49.609ZM66.1887 47.091C66.1887 46.2159 65.9889 45.4037 65.5521 44.6926L63.848 45.7394C64.0627 46.0889 64.1887 46.5267 64.1887 47.091H66.1887ZM65.5607 44.7069C65.1403 43.9961 64.5407 43.4484 63.7927 43.0648L62.8801 44.8445C63.314 45.067 63.6234 45.3601 63.8394 45.7251L65.5607 44.7069ZM63.7974 43.0672C63.0447 42.6762 62.1908 42.5001 61.2682 42.5001V44.5001C61.9366 44.5001 62.4614 44.627 62.8754 44.842L63.7974 43.0672ZM61.2682 42.5001C60.3841 42.5001 59.5418 42.6644 58.7519 43.0003L59.5346 44.8408C60.0629 44.6161 60.6373 44.5001 61.2682 44.5001V42.5001ZM58.7571 42.9981C57.9618 43.331 57.2909 43.8236 56.7692 44.4805L58.3354 45.7242C58.632 45.3508 59.0216 45.0555 59.5294 44.843L58.7571 42.9981ZM56.7737 44.4748C56.2179 45.1645 55.9326 45.9847 55.8941 46.8894L57.8923 46.9744C57.9144 46.4548 58.0686 46.0554 58.3309 45.7299L56.7737 44.4748ZM56.8932 45.9319H53.4955V47.9319H56.8932V45.9319ZM54.4951 46.962C54.5272 45.8948 54.8375 44.9883 55.4137 44.2076L53.8046 43.0199C52.9717 44.1483 52.5396 45.4538 52.496 46.9018L54.4951 46.962ZM55.4107 44.2117C56.0153 43.4013 56.8186 42.7569 57.846 42.2832L57.0086 40.467C55.7028 41.069 54.6273 41.9171 53.8076 43.0158L55.4107 44.2117ZM57.846 42.2832C58.8678 41.8122 60.0182 41.5683 61.3137 41.5683V39.5683C59.7607 39.5683 58.3202 39.8623 57.0086 40.467L57.846 42.2832ZM61.3137 41.5683C62.6756 41.5683 63.7936 41.8339 64.7032 42.3237L65.6514 40.5628C64.3944 39.886 62.9367 39.5683 61.3137 39.5683V41.5683ZM64.7106 42.3277C65.6581 42.8277 66.3594 43.478 66.8479 44.2734L68.5522 43.2267C67.8589 42.098 66.8784 41.2103 65.6441 40.5589L64.7106 42.3277ZM66.8509 44.2783C67.3486 45.0783 67.5928 45.9456 67.5864 46.9026L69.5864 46.9158C69.5952 45.5848 69.2485 44.3461 68.5492 43.2219L66.8509 44.2783ZM67.5864 46.915C67.5928 48.0154 67.2908 48.8899 66.7178 49.5987L68.2732 50.856C69.1699 49.7467 69.5952 48.409 69.5864 46.9034L67.5864 46.915ZM66.7146 49.6027C66.1333 50.3294 65.3569 50.8272 64.3382 51.0882L64.8347 53.0256C66.2402 52.6654 67.4032 51.9435 68.2764 50.8521L66.7146 49.6027ZM63.5864 52.0569V52.2387H65.5864V52.0569H63.5864ZM64.4362 53.2274C65.7934 53.4336 66.7543 53.954 67.4173 54.7295L68.9374 53.4298C67.9034 52.2204 66.4704 51.5135 64.7367 51.2501L64.4362 53.2274ZM67.4201 54.7328C68.099 55.5199 68.4566 56.5081 68.4501 57.7677L70.45 57.778C70.4587 56.0981 69.9677 54.6243 68.9345 53.4265L67.4201 54.7328ZM68.4501 57.7787C68.4565 58.8563 68.1611 59.7984 67.5661 60.6376L69.1977 61.7944C70.0421 60.6033 70.4588 59.25 70.45 57.7669L68.4501 57.7787ZM67.5632 60.6417C66.9606 61.5007 66.1285 62.1926 65.0343 62.7095L65.8886 64.5179C67.264 63.8682 68.3789 62.9616 69.2005 61.7903L67.5632 60.6417ZM65.0388 62.7074C63.9567 63.2119 62.692 63.4774 61.2228 63.4774V65.4774C62.9354 65.4774 64.4964 65.167 65.884 64.5201L65.0388 62.7074Z" fill="black" mask="url(#path-2-outside-1_16_955)"/>
<path d="M8.95033 29.4897C17.8846 9.42873 37.0174 -2.10968 58.8778 1.97771C77.2722 5.41705 87.2937 15.4751 96.7175 29.4894C108.28 46.6839 101.973 63.8788 92.5131 71.3298C83.0531 78.7809 63.316 94.2209 51.52 99.9876C36.2792 107.438 18.1768 101.707 7.89925 83.3661C-3.66307 62.7326 1.03295 47.2672 8.95033 29.4897Z" stroke="black" stroke-width="1.5" stroke-linecap="round" stroke-dasharray="5 5"/>
</svg>
