<svg width="111" height="103" viewBox="0 0 111 103" fill="none" xmlns="http://www.w3.org/2000/svg">
<path d="M95.5726 83.8767C108.633 71.3767 102.647 45.8765 93.9401 28.8767C82.1936 5.94186 59.6573 3.87668 41.1556 9.87668C22.6538 15.8767 15.5796 24.8767 11.7704 32.3767C7.96126 39.8767 3.06373 61.8767 20.4772 77.3767C37.8906 92.8767 44.9648 95.3767 55.8482 96.3767C66.7316 97.3767 82.5125 96.3767 95.5726 83.8767Z" fill="#D93749" stroke="#D93749"/>
<mask id="path-2-outside-1_16_750" maskUnits="userSpaceOnUse" x="35.0424" y="38" width="39" height="27" fill="black">
<rect fill="white" x="35.0424" y="38" width="39" height="27"/>
<path d="M45.2378 63.3864C43.4424 63.3788 41.9083 62.9053 40.6356 61.9659C39.3628 61.0265 38.3893 59.6591 37.7151 57.8636C37.0409 56.0682 36.7037 53.9053 36.7037 51.375C36.7037 48.8523 37.0409 46.697 37.7151 44.9091C38.3969 43.1212 39.3742 41.7576 40.6469 40.8182C41.9272 39.8788 43.4575 39.4091 45.2378 39.4091C47.0181 39.4091 48.5446 39.8826 49.8174 40.8295C51.0901 41.7689 52.0636 43.1326 52.7378 44.9205C53.4196 46.7008 53.7606 48.8523 53.7606 51.375C53.7606 53.9129 53.4234 56.0795 52.7492 57.875C52.0749 59.6629 51.1015 61.0303 49.8287 61.9773C48.556 62.9167 47.0257 63.3864 45.2378 63.3864ZM45.2378 60.3523C46.8136 60.3523 48.0446 59.5833 48.931 58.0455C49.8249 56.5076 50.2719 54.2841 50.2719 51.375C50.2719 49.4432 50.0674 47.8106 49.6583 46.4773C49.2568 45.1364 48.6772 44.1212 47.9196 43.4318C47.1696 42.7348 46.2757 42.3864 45.2378 42.3864C43.6696 42.3864 42.4386 43.1591 41.5446 44.7045C40.6507 46.25 40.1999 48.4735 40.1924 51.375C40.1924 53.3144 40.3931 54.9545 40.7946 56.2955C41.2037 57.6288 41.7833 58.6402 42.5333 59.3295C43.2833 60.0114 44.1848 60.3523 45.2378 60.3523ZM64.6141 63.3182C63.0535 63.3182 61.6595 63.0492 60.4323 62.5114C59.2126 61.9735 58.2467 61.2273 57.5345 60.2727C56.83 59.3106 56.4512 58.197 56.3982 56.9318H59.9663C60.0118 57.6212 60.2429 58.2197 60.6595 58.7273C61.0838 59.2273 61.6368 59.6136 62.3186 59.8864C63.0004 60.1591 63.758 60.2955 64.5913 60.2955C65.508 60.2955 66.3186 60.1364 67.0232 59.8182C67.7353 59.5 68.2921 59.0568 68.6936 58.4886C69.0951 57.9129 69.2959 57.25 69.2959 56.5C69.2959 55.7197 69.0951 55.0341 68.6936 54.4432C68.2997 53.8447 67.7201 53.375 66.955 53.0341C66.1974 52.6932 65.2807 52.5227 64.205 52.5227H62.2391V49.6591H64.205C65.0686 49.6591 65.8262 49.5038 66.4777 49.1932C67.1368 48.8826 67.652 48.4508 68.0232 47.8977C68.3944 47.3371 68.58 46.6818 68.58 45.9318C68.58 45.2121 68.4171 44.5871 68.0913 44.0568C67.7732 43.5189 67.3186 43.0985 66.7277 42.7955C66.1444 42.4924 65.455 42.3409 64.6595 42.3409C63.902 42.3409 63.1936 42.4811 62.5345 42.7614C61.883 43.0341 61.3527 43.428 60.9436 43.9432C60.5345 44.4508 60.3148 45.0606 60.2845 45.7727H56.8868C56.9247 44.5152 57.2959 43.4091 58.0004 42.4545C58.7126 41.5 59.652 40.7538 60.8186 40.2159C61.9853 39.678 63.2807 39.4091 64.705 39.4091C66.1974 39.4091 67.4853 39.7008 68.5686 40.2841C69.6595 40.8598 70.5004 41.6288 71.0913 42.5909C71.6898 43.553 71.9853 44.6061 71.9777 45.75C71.9853 47.053 71.6217 48.1591 70.8868 49.0682C70.1595 49.9773 69.1898 50.5871 67.9777 50.8977V51.0795C69.5232 51.3144 70.7201 51.928 71.5686 52.9205C72.4247 53.9129 72.8489 55.1439 72.8413 56.6136C72.8489 57.8939 72.4929 59.0417 71.7732 60.0568C71.061 61.072 70.0876 61.8712 68.8527 62.4545C67.6179 63.0303 66.205 63.3182 64.6141 63.3182Z"/>
</mask>
<path d="M45.2378 63.3864C43.4424 63.3788 41.9083 62.9053 40.6356 61.9659C39.3628 61.0265 38.3893 59.6591 37.7151 57.8636C37.0409 56.0682 36.7037 53.9053 36.7037 51.375C36.7037 48.8523 37.0409 46.697 37.7151 44.9091C38.3969 43.1212 39.3742 41.7576 40.6469 40.8182C41.9272 39.8788 43.4575 39.4091 45.2378 39.4091C47.0181 39.4091 48.5446 39.8826 49.8174 40.8295C51.0901 41.7689 52.0636 43.1326 52.7378 44.9205C53.4196 46.7008 53.7606 48.8523 53.7606 51.375C53.7606 53.9129 53.4234 56.0795 52.7492 57.875C52.0749 59.6629 51.1015 61.0303 49.8287 61.9773C48.556 62.9167 47.0257 63.3864 45.2378 63.3864ZM45.2378 60.3523C46.8136 60.3523 48.0446 59.5833 48.931 58.0455C49.8249 56.5076 50.2719 54.2841 50.2719 51.375C50.2719 49.4432 50.0674 47.8106 49.6583 46.4773C49.2568 45.1364 48.6772 44.1212 47.9196 43.4318C47.1696 42.7348 46.2757 42.3864 45.2378 42.3864C43.6696 42.3864 42.4386 43.1591 41.5446 44.7045C40.6507 46.25 40.1999 48.4735 40.1924 51.375C40.1924 53.3144 40.3931 54.9545 40.7946 56.2955C41.2037 57.6288 41.7833 58.6402 42.5333 59.3295C43.2833 60.0114 44.1848 60.3523 45.2378 60.3523ZM64.6141 63.3182C63.0535 63.3182 61.6595 63.0492 60.4323 62.5114C59.2126 61.9735 58.2467 61.2273 57.5345 60.2727C56.83 59.3106 56.4512 58.197 56.3982 56.9318H59.9663C60.0118 57.6212 60.2429 58.2197 60.6595 58.7273C61.0838 59.2273 61.6368 59.6136 62.3186 59.8864C63.0004 60.1591 63.758 60.2955 64.5913 60.2955C65.508 60.2955 66.3186 60.1364 67.0232 59.8182C67.7353 59.5 68.2921 59.0568 68.6936 58.4886C69.0951 57.9129 69.2959 57.25 69.2959 56.5C69.2959 55.7197 69.0951 55.0341 68.6936 54.4432C68.2997 53.8447 67.7201 53.375 66.955 53.0341C66.1974 52.6932 65.2807 52.5227 64.205 52.5227H62.2391V49.6591H64.205C65.0686 49.6591 65.8262 49.5038 66.4777 49.1932C67.1368 48.8826 67.652 48.4508 68.0232 47.8977C68.3944 47.3371 68.58 46.6818 68.58 45.9318C68.58 45.2121 68.4171 44.5871 68.0913 44.0568C67.7732 43.5189 67.3186 43.0985 66.7277 42.7955C66.1444 42.4924 65.455 42.3409 64.6595 42.3409C63.902 42.3409 63.1936 42.4811 62.5345 42.7614C61.883 43.0341 61.3527 43.428 60.9436 43.9432C60.5345 44.4508 60.3148 45.0606 60.2845 45.7727H56.8868C56.9247 44.5152 57.2959 43.4091 58.0004 42.4545C58.7126 41.5 59.652 40.7538 60.8186 40.2159C61.9853 39.678 63.2807 39.4091 64.705 39.4091C66.1974 39.4091 67.4853 39.7008 68.5686 40.2841C69.6595 40.8598 70.5004 41.6288 71.0913 42.5909C71.6898 43.553 71.9853 44.6061 71.9777 45.75C71.9853 47.053 71.6217 48.1591 70.8868 49.0682C70.1595 49.9773 69.1898 50.5871 67.9777 50.8977V51.0795C69.5232 51.3144 70.7201 51.928 71.5686 52.9205C72.4247 53.9129 72.8489 55.1439 72.8413 56.6136C72.8489 57.8939 72.4929 59.0417 71.7732 60.0568C71.061 61.072 70.0876 61.8712 68.8527 62.4545C67.6179 63.0303 66.205 63.3182 64.6141 63.3182Z" fill="white"/>
<path d="M45.2378 63.3864L45.2336 64.3864H45.2378V63.3864ZM37.7151 57.8636L38.6513 57.5121L37.7151 57.8636ZM37.7151 44.9091L36.7807 44.5528L36.7794 44.5562L37.7151 44.9091ZM40.6469 40.8182L40.0553 40.0119L40.0531 40.0136L40.6469 40.8182ZM49.8174 40.8295L49.2204 41.6318L49.2235 41.6341L49.8174 40.8295ZM52.7378 44.9205L51.8021 45.2733L51.804 45.2781L52.7378 44.9205ZM52.7492 57.875L53.6849 58.2279L53.6854 58.2266L52.7492 57.875ZM49.8287 61.9773L50.4226 62.7819L50.4257 62.7796L49.8287 61.9773ZM48.931 58.0455L48.0665 57.5429L48.0646 57.5461L48.931 58.0455ZM49.6583 46.4773L48.7003 46.7641L48.7023 46.7706L49.6583 46.4773ZM47.9196 43.4318L47.2389 44.1644L47.2466 44.1714L47.9196 43.4318ZM41.5446 44.7045L40.679 44.2038L41.5446 44.7045ZM40.1924 51.375L39.1924 51.3724V51.375H40.1924ZM40.7946 56.2955L39.8366 56.5823L39.8386 56.5888L40.7946 56.2955ZM42.5333 59.3295L41.8565 60.0658L41.8606 60.0695L42.5333 59.3295ZM45.242 62.3864C43.629 62.3796 42.3087 61.958 41.2294 61.1613L40.0417 62.7705C41.5078 63.8526 43.2557 64.378 45.2336 64.3864L45.242 62.3864ZM41.2294 61.1613C40.1424 60.359 39.2721 59.1654 38.6513 57.5121L36.7789 58.2152C37.5066 60.1528 38.5832 61.694 40.0417 62.7705L41.2294 61.1613ZM38.6513 57.5121C38.0303 55.8586 37.7037 53.8214 37.7037 51.375H35.7037C35.7037 53.9892 36.0514 56.2778 36.7789 58.2152L38.6513 57.5121ZM37.7037 51.375C37.7037 48.9364 38.0303 46.9074 38.6508 45.262L36.7794 44.5562C36.0514 46.4866 35.7037 48.7682 35.7037 51.375H37.7037ZM38.6495 45.2654C39.2775 43.6186 40.1517 42.4266 41.2408 41.6228L40.0531 40.0136C38.5966 41.0886 37.5164 42.6238 36.7807 44.5528L38.6495 45.2654ZM41.2385 41.6244C42.3267 40.826 43.6433 40.4091 45.2378 40.4091V38.4091C43.2717 38.4091 41.5278 38.9316 40.0553 40.0119L41.2385 41.6244ZM45.2378 40.4091C46.8306 40.4091 48.1411 40.8288 49.2204 41.6318L50.4143 40.0273C48.9482 38.9364 47.2056 38.4091 45.2378 38.4091V40.4091ZM49.2235 41.6341C50.3115 42.4372 51.1816 43.6279 51.8022 45.2733L53.6735 44.5676C52.9455 42.6372 51.8687 41.1007 50.4112 40.025L49.2235 41.6341ZM51.804 45.2781C52.4305 46.9139 52.7606 48.9372 52.7606 51.375H54.7606C54.7606 48.7673 54.4088 46.4876 53.6717 44.5628L51.804 45.2781ZM52.7606 51.375C52.7606 53.8294 52.4339 55.8702 51.813 57.5234L53.6854 58.2266C54.413 56.2889 54.7606 53.9963 54.7606 51.375H52.7606ZM51.8135 57.5221C51.1929 59.1679 50.322 60.3638 49.2318 61.175L50.4257 62.7796C51.8809 61.6968 52.957 60.1579 53.6849 58.2279L51.8135 57.5221ZM49.2349 61.1727C48.1562 61.9689 46.8411 62.3864 45.2378 62.3864V64.3864C47.2104 64.3864 48.9559 63.8644 50.4226 62.7818L49.2349 61.1727ZM45.2378 61.3523C47.2224 61.3523 48.7597 60.3453 49.7974 58.5448L48.0646 57.5461C47.3296 58.8214 46.4047 59.3523 45.2378 59.3523V61.3523ZM49.7956 58.548C50.8178 56.7894 51.2719 54.3603 51.2719 51.375H49.2719C49.2719 54.2079 48.8321 56.2257 48.0665 57.5429L49.7956 58.548ZM51.2719 51.375C51.2719 49.379 51.0613 47.641 50.6143 46.184L48.7023 46.7706C49.0734 47.9802 49.2719 49.5073 49.2719 51.375H51.2719ZM50.6163 46.1904C50.181 44.7369 49.5252 43.5408 48.5927 42.6922L47.2466 44.1714C47.8293 44.7017 48.3325 45.5359 48.7003 46.7641L50.6163 46.1904ZM48.6004 42.6993C47.6626 41.8278 46.5244 41.3864 45.2378 41.3864V43.3864C46.027 43.3864 46.6767 43.6419 47.2389 44.1643L48.6004 42.6993ZM45.2378 41.3864C43.2571 41.3864 41.722 42.4007 40.679 44.2038L42.4103 45.2052C43.1552 43.9174 44.0822 43.3864 45.2378 43.3864V41.3864ZM40.679 44.2038C39.6589 45.9675 39.2002 48.3939 39.1924 51.3724L41.1924 51.3776C41.1997 48.553 41.6425 46.5325 42.4103 45.2052L40.679 44.2038ZM39.1924 51.375C39.1924 53.3771 39.3989 55.1202 39.8367 56.5823L41.7526 56.0086C41.3874 54.7889 41.1924 53.2517 41.1924 51.375H39.1924ZM39.8386 56.5888C40.2814 58.0318 40.9362 59.2198 41.8565 60.0658L43.21 58.5933C42.6304 58.0605 42.1261 57.2258 41.7507 56.0021L39.8386 56.5888ZM41.8606 60.0695C42.8024 60.9257 43.9467 61.3523 45.2378 61.3523V59.3523C44.4229 59.3523 43.7642 59.0971 43.206 58.5896L41.8606 60.0695ZM60.4323 62.5114L60.0288 63.4263L60.0308 63.4273L60.4323 62.5114ZM57.5345 60.2727L56.7277 60.8636L56.733 60.8707L57.5345 60.2727ZM56.3982 56.9318V55.9318H55.3554L55.399 56.9737L56.3982 56.9318ZM59.9663 56.9318L60.9642 56.866L60.9026 55.9318H59.9663V56.9318ZM60.6595 58.7273L59.8866 59.3618L59.8918 59.368L59.897 59.3742L60.6595 58.7273ZM62.3186 59.8864L62.69 58.9579L62.3186 59.8864ZM67.0232 59.8182L66.6152 58.9052L66.6116 58.9068L67.0232 59.8182ZM68.6936 58.4886L69.5103 59.0658L69.5139 59.0606L68.6936 58.4886ZM68.6936 54.4432L67.8583 54.993L67.8624 54.9991L67.8665 55.0052L68.6936 54.4432ZM66.955 53.0341L66.5446 53.946L66.548 53.9475L66.955 53.0341ZM62.2391 52.5227H61.2391V53.5227H62.2391V52.5227ZM62.2391 49.6591V48.6591H61.2391V49.6591H62.2391ZM66.4777 49.1932L66.0514 48.2886L66.0474 48.2905L66.4777 49.1932ZM68.0232 47.8977L68.8535 48.4551L68.8569 48.4498L68.0232 47.8977ZM68.0913 44.0568L67.2307 44.566L67.2349 44.5731L67.2393 44.5802L68.0913 44.0568ZM66.7277 42.7955L66.2667 43.6829L66.2714 43.6853L66.7277 42.7955ZM62.5345 42.7614L62.9207 43.6838L62.9259 43.6816L62.5345 42.7614ZM60.9436 43.9432L61.7222 44.5707L61.7267 44.5651L60.9436 43.9432ZM60.2845 45.7727V46.7727H61.2429L61.2836 45.8152L60.2845 45.7727ZM56.8868 45.7727L55.8873 45.7426L55.8562 46.7727H56.8868V45.7727ZM58.0004 42.4545L57.1989 41.8566L57.1959 41.8607L58.0004 42.4545ZM60.8186 40.2159L61.2373 41.124L60.8186 40.2159ZM68.5686 40.2841L68.0945 41.1646L68.1019 41.1685L68.5686 40.2841ZM71.0913 42.5909L70.2392 43.1143L70.2422 43.1191L71.0913 42.5909ZM71.9777 45.75L70.9777 45.7434L70.9777 45.7558L71.9777 45.75ZM70.8868 49.0682L70.1091 48.4395L70.1059 48.4435L70.8868 49.0682ZM67.9777 50.8977L67.7295 49.929L66.9777 50.1217V50.8977H67.9777ZM67.9777 51.0795H66.9777V51.9391L67.8275 52.0682L67.9777 51.0795ZM71.5686 52.9205L70.8085 53.5703L70.8114 53.5736L71.5686 52.9205ZM72.8413 56.6136L71.8413 56.6085L71.8414 56.6196L72.8413 56.6136ZM71.7732 60.0568L70.9574 59.4785L70.9545 59.4825L71.7732 60.0568ZM68.8527 62.4545L69.2753 63.3609L69.2798 63.3587L68.8527 62.4545ZM64.6141 62.3182C63.1691 62.3182 61.9153 62.0695 60.8337 61.5955L60.0308 63.4273C61.4038 64.029 62.9378 64.3182 64.6141 64.3182V62.3182ZM60.8358 61.5964C59.7546 61.1196 58.9332 60.4752 58.3361 59.6748L56.733 60.8707C57.5601 61.9794 58.6705 62.8274 60.0288 63.4263L60.8358 61.5964ZM58.3413 59.6819C57.7613 58.8898 57.4426 57.97 57.3973 56.8899L55.399 56.9737C55.4598 58.424 55.8987 59.7314 56.7277 60.8635L58.3413 59.6819ZM56.3982 57.9318H59.9663V55.9318H56.3982V57.9318ZM58.9685 56.9976C59.027 57.8839 59.3303 58.6841 59.8866 59.3618L61.4325 58.0928C61.1555 57.7553 60.9967 57.3586 60.9642 56.866L58.9685 56.9976ZM59.897 59.3742C60.4389 60.0129 61.1325 60.4889 61.9472 60.8148L62.69 58.9579C62.1412 58.7383 61.7287 58.4417 61.422 58.0803L59.897 59.3742ZM61.9472 60.8148C62.762 61.1408 63.6478 61.2955 64.5913 61.2955V59.2955C63.8682 59.2955 63.2389 59.1774 62.69 58.9579L61.9472 60.8148ZM64.5913 61.2955C65.6239 61.2955 66.5791 61.116 67.4348 60.7296L66.6116 58.9068C66.0582 59.1567 65.3921 59.2955 64.5913 59.2955V61.2955ZM67.4311 60.7312C68.2868 60.3488 68.993 59.7977 69.5103 59.0657L67.877 57.9115C67.5912 58.3159 67.1837 58.6512 66.6152 58.9052L67.4311 60.7312ZM69.5139 59.0606C70.0406 58.3054 70.2959 57.4398 70.2959 56.5H68.2959C68.2959 57.0602 68.1497 57.5204 67.8734 57.9166L69.5139 59.0606ZM70.2959 56.5C70.2959 55.5386 70.0453 54.6532 69.5207 53.8812L67.8665 55.0052C68.145 55.415 68.2959 55.9008 68.2959 56.5H70.2959ZM69.5289 53.8934C69.0131 53.1098 68.2716 52.5259 67.362 52.1207L66.548 53.9475C67.1687 54.2241 67.5862 54.5796 67.8583 54.993L69.5289 53.8934ZM67.3653 52.1222C66.4467 51.7088 65.3822 51.5227 64.205 51.5227V53.5227C65.1793 53.5227 65.9482 53.6776 66.5446 53.946L67.3653 52.1222ZM64.205 51.5227H62.2391V53.5227H64.205V51.5227ZM63.2391 52.5227V49.6591H61.2391V52.5227H63.2391ZM62.2391 50.6591H64.205V48.6591H62.2391V50.6591ZM64.205 50.6591C65.1886 50.6591 66.0983 50.4819 66.9081 50.0958L66.0474 48.2905C65.5541 48.5257 64.9486 48.6591 64.205 48.6591V50.6591ZM66.904 50.0978C67.7108 49.7175 68.3721 49.1721 68.8535 48.455L67.1929 47.3404C66.9318 47.7294 66.5628 48.0476 66.0514 48.2886L66.904 50.0978ZM68.8569 48.4498C69.3489 47.7069 69.58 46.8547 69.58 45.9318H67.58C67.58 46.509 67.4399 46.9673 67.1894 47.3456L68.8569 48.4498ZM69.58 45.9318C69.58 45.0568 69.3802 44.2445 68.9434 43.5334L67.2393 44.5802C67.454 44.9298 67.58 45.3675 67.58 45.9318H69.58ZM68.952 43.5477C68.5316 42.837 67.932 42.2892 67.184 41.9056L66.2714 43.6853C66.7053 43.9078 67.0147 44.2009 67.2307 44.566L68.952 43.5477ZM67.1887 41.908C66.436 41.5171 65.5821 41.3409 64.6595 41.3409V43.3409C65.3279 43.3409 65.8527 43.4678 66.2667 43.6829L67.1887 41.908ZM64.6595 41.3409C63.7754 41.3409 62.9331 41.5052 62.1432 41.8411L62.9259 43.6816C63.4542 43.4569 64.0286 43.3409 64.6595 43.3409V41.3409ZM62.1484 41.8389C61.3531 42.1718 60.6821 42.6644 60.1605 43.3213L61.7267 44.5651C62.0233 44.1916 62.4129 43.8964 62.9207 43.6838L62.1484 41.8389ZM60.165 43.3157C59.6092 44.0053 59.3239 44.8256 59.2854 45.7302L61.2836 45.8152C61.3057 45.2956 61.4599 44.8962 61.7222 44.5707L60.165 43.3157ZM60.2845 44.7727H56.8868V46.7727H60.2845V44.7727ZM57.8864 45.8028C57.9185 44.7356 58.2288 43.8291 58.805 43.0484L57.1959 41.8607C56.363 42.9891 55.9309 44.2947 55.8873 45.7426L57.8864 45.8028ZM58.802 43.0525C59.4066 42.2421 60.2099 41.5977 61.2373 41.124L60.3999 39.3078C59.094 39.9098 58.0186 40.7579 57.1989 41.8566L58.802 43.0525ZM61.2373 41.124C62.259 40.653 63.4095 40.4091 64.705 40.4091V38.4091C63.152 38.4091 61.7115 38.7031 60.3999 39.3078L61.2373 41.124ZM64.705 40.4091C66.0669 40.4091 67.1848 40.6747 68.0945 41.1646L69.0427 39.4036C67.7857 38.7268 66.3279 38.4091 64.705 38.4091V40.4091ZM68.1019 41.1685C69.0494 41.6686 69.7507 42.3188 70.2392 43.1143L71.9435 42.0676C71.2502 40.9388 70.2697 40.0511 69.0354 39.3997L68.1019 41.1685ZM70.2422 43.1191C70.7399 43.9192 70.9841 44.7865 70.9777 45.7434L72.9777 45.7566C72.9865 44.4257 72.6398 43.1869 71.9405 42.0627L70.2422 43.1191ZM70.9777 45.7558C70.9841 46.8562 70.6821 47.7307 70.1091 48.4395L71.6645 49.6968C72.5612 48.5875 72.9865 47.2499 72.9777 45.7442L70.9777 45.7558ZM70.1059 48.4435C69.5246 49.1702 68.7481 49.668 67.7295 49.929L68.2259 51.8664C69.6315 51.5062 70.7945 50.7844 71.6677 49.6929L70.1059 48.4435ZM66.9777 50.8977V51.0795H68.9777V50.8977H66.9777ZM67.8275 52.0682C69.1846 52.2744 70.1456 52.7948 70.8085 53.5703L72.3287 52.2706C71.2947 51.0612 69.8617 50.3544 68.1279 50.0909L67.8275 52.0682ZM70.8114 53.5736C71.4903 54.3607 71.8479 55.349 71.8414 56.6085L73.8413 56.6188C73.85 54.9389 73.359 53.4651 72.3258 52.2673L70.8114 53.5736ZM71.8414 56.6196C71.8477 57.6971 71.5524 58.6392 70.9574 59.4785L72.589 60.6352C73.4333 59.4441 73.8501 58.0908 73.8413 56.6077L71.8414 56.6196ZM70.9545 59.4825C70.3519 60.3415 69.5198 61.0334 68.4256 61.5504L69.2798 63.3587C70.6553 62.709 71.7702 61.8024 72.5918 60.6311L70.9545 59.4825ZM68.4301 61.5482C67.348 62.0528 66.0833 62.3182 64.6141 62.3182V64.3182C66.3267 64.3182 67.8877 64.0078 69.2753 63.3609L68.4301 61.5482Z" fill="#D93749" mask="url(#path-2-outside-1_16_750)"/>
<path d="M100.716 87.5931C115.519 73.5132 108.734 44.79 98.8655 25.6417C85.5515 -0.191873 60.0078 -2.51807 39.0369 4.24027C18.0661 10.9986 10.0479 21.1361 5.73038 29.584C1.41286 38.0319 -4.13824 62.8125 15.599 80.2716C35.3362 97.7306 43.3545 100.547 55.6903 101.673C68.026 102.799 85.9129 101.673 100.716 87.5931Z" stroke="#D93749" stroke-width="1.5" stroke-linecap="round" stroke-dasharray="5 5"/>
</svg>
