<svg width="123" height="104" viewBox="0 0 123 104" fill="none" xmlns="http://www.w3.org/2000/svg">
<path d="M16.808 31.7144C26.0588 14.214 45.8694 4.14837 68.5041 7.71405C87.5502 10.7144 97.9267 19.4887 107.684 31.7142C119.656 46.714 113.126 61.7142 103.331 68.2142C93.5359 74.7142 73.0995 88.1835 60.8857 93.2142C45.105 99.714 26.3613 94.714 15.7197 78.7142C3.74778 60.7143 8.61016 47.2229 16.808 31.7144Z" fill="black" stroke="black"/>
<mask id="path-2-outside-1_16_757" maskUnits="userSpaceOnUse" x="40.8375" y="39" width="40" height="27" fill="black">
<rect fill="white" x="40.8375" y="39" width="40" height="27"/>
<path d="M50.965 64.3864C49.1695 64.3788 47.6354 63.9053 46.3627 62.9659C45.09 62.0265 44.1165 60.6591 43.4422 58.8636C42.768 57.0682 42.4309 54.9053 42.4309 52.375C42.4309 49.8523 42.768 47.697 43.4422 45.9091C44.1241 44.1212 45.1013 42.7576 46.3741 41.8182C47.6544 40.8788 49.1847 40.4091 50.965 40.4091C52.7453 40.4091 54.2718 40.8826 55.5445 41.8295C56.8172 42.7689 57.7907 44.1326 58.465 45.9205C59.1468 47.7008 59.4877 49.8523 59.4877 52.375C59.4877 54.9129 59.1506 57.0795 58.4763 58.875C57.8021 60.6629 56.8286 62.0303 55.5559 62.9773C54.2831 63.9167 52.7528 64.3864 50.965 64.3864ZM50.965 61.3523C52.5407 61.3523 53.7718 60.5833 54.6581 59.0455C55.5521 57.5076 55.9991 55.2841 55.9991 52.375C55.9991 50.4432 55.7945 48.8106 55.3854 47.4773C54.9839 46.1364 54.4044 45.1212 53.6468 44.4318C52.8968 43.7348 52.0028 43.3864 50.965 43.3864C49.3968 43.3864 48.1657 44.1591 47.2718 45.7045C46.3778 47.25 45.9271 49.4735 45.9195 52.375C45.9195 54.3144 46.1203 55.9545 46.5218 57.2955C46.9309 58.6288 47.5104 59.6402 48.2604 60.3295C49.0104 61.0114 49.9119 61.3523 50.965 61.3523ZM61.7503 59.4545V56.6136L71.8071 40.7273H74.0458V44.9091H72.6253L65.4321 56.2955V56.4773H79.2162V59.4545H61.7503ZM72.7844 64V58.5909L72.8071 57.2955V40.7273H76.1367V64H72.7844Z"/>
</mask>
<path d="M50.965 64.3864C49.1695 64.3788 47.6354 63.9053 46.3627 62.9659C45.09 62.0265 44.1165 60.6591 43.4422 58.8636C42.768 57.0682 42.4309 54.9053 42.4309 52.375C42.4309 49.8523 42.768 47.697 43.4422 45.9091C44.1241 44.1212 45.1013 42.7576 46.3741 41.8182C47.6544 40.8788 49.1847 40.4091 50.965 40.4091C52.7453 40.4091 54.2718 40.8826 55.5445 41.8295C56.8172 42.7689 57.7907 44.1326 58.465 45.9205C59.1468 47.7008 59.4877 49.8523 59.4877 52.375C59.4877 54.9129 59.1506 57.0795 58.4763 58.875C57.8021 60.6629 56.8286 62.0303 55.5559 62.9773C54.2831 63.9167 52.7528 64.3864 50.965 64.3864ZM50.965 61.3523C52.5407 61.3523 53.7718 60.5833 54.6581 59.0455C55.5521 57.5076 55.9991 55.2841 55.9991 52.375C55.9991 50.4432 55.7945 48.8106 55.3854 47.4773C54.9839 46.1364 54.4044 45.1212 53.6468 44.4318C52.8968 43.7348 52.0028 43.3864 50.965 43.3864C49.3968 43.3864 48.1657 44.1591 47.2718 45.7045C46.3778 47.25 45.9271 49.4735 45.9195 52.375C45.9195 54.3144 46.1203 55.9545 46.5218 57.2955C46.9309 58.6288 47.5104 59.6402 48.2604 60.3295C49.0104 61.0114 49.9119 61.3523 50.965 61.3523ZM61.7503 59.4545V56.6136L71.8071 40.7273H74.0458V44.9091H72.6253L65.4321 56.2955V56.4773H79.2162V59.4545H61.7503ZM72.7844 64V58.5909L72.8071 57.2955V40.7273H76.1367V64H72.7844Z" fill="white"/>
<path d="M50.965 64.3864L50.9607 65.3864H50.965V64.3864ZM43.4422 58.8636L44.3784 58.5121L43.4422 58.8636ZM43.4422 45.9091L42.5079 45.5528L42.5066 45.5562L43.4422 45.9091ZM46.3741 41.8182L45.7825 41.0119L45.7802 41.0136L46.3741 41.8182ZM55.5445 41.8295L54.9476 42.6318L54.9507 42.6341L55.5445 41.8295ZM58.465 45.9205L57.5293 46.2733L57.5311 46.2781L58.465 45.9205ZM58.4763 58.875L59.412 59.2279L59.4125 59.2266L58.4763 58.875ZM55.5559 62.9773L56.1497 63.7819L56.1528 63.7796L55.5559 62.9773ZM54.6581 59.0455L53.7936 58.5429L53.7917 58.5461L54.6581 59.0455ZM55.3854 47.4773L54.4274 47.7641L54.4294 47.7706L55.3854 47.4773ZM53.6468 44.4318L52.966 45.1644L52.9737 45.1714L53.6468 44.4318ZM47.2718 45.7045L46.4062 45.2038L47.2718 45.7045ZM45.9195 52.375L44.9195 52.3724V52.375H45.9195ZM46.5218 57.2955L45.5638 57.5823L45.5658 57.5888L46.5218 57.2955ZM48.2604 60.3295L47.5837 61.0658L47.5877 61.0695L48.2604 60.3295ZM50.9692 63.3864C49.3561 63.3796 48.0359 62.958 46.9565 62.1613L45.7688 63.7705C47.235 64.8526 48.9829 65.378 50.9607 65.3864L50.9692 63.3864ZM46.9565 62.1613C45.8696 61.359 44.9993 60.1654 44.3784 58.5121L42.5061 59.2152C43.2337 61.1528 44.3104 62.694 45.7688 63.7705L46.9565 62.1613ZM44.3784 58.5121C43.7575 56.8586 43.4309 54.8214 43.4309 52.375H41.4309C41.4309 54.9892 41.7785 57.2778 42.5061 59.2152L44.3784 58.5121ZM43.4309 52.375C43.4309 49.9364 43.7574 47.9074 44.3779 46.262L42.5066 45.5562C41.7786 47.4866 41.4309 49.7682 41.4309 52.375H43.4309ZM44.3766 46.2654C45.0046 44.6186 45.8789 43.4266 46.9679 42.6228L45.7802 41.0136C44.3238 42.0886 43.2435 43.6238 42.5079 45.5528L44.3766 46.2654ZM46.9656 42.6244C48.0538 41.826 49.3705 41.4091 50.965 41.4091V39.4091C48.9989 39.4091 47.2549 39.9316 45.7825 41.0119L46.9656 42.6244ZM50.965 41.4091C52.5578 41.4091 53.8683 41.8288 54.9476 42.6318L56.1414 41.0273C54.6753 39.9364 52.9328 39.4091 50.965 39.4091V41.4091ZM54.9507 42.6341C56.0386 43.4372 56.9088 44.6279 57.5293 46.2733L59.4006 45.5676C58.6727 43.6372 57.5958 42.1007 56.1384 41.025L54.9507 42.6341ZM57.5311 46.2781C58.1576 47.9139 58.4877 49.9372 58.4877 52.375H60.4877C60.4877 49.7673 60.136 47.4876 59.3988 45.5628L57.5311 46.2781ZM58.4877 52.375C58.4877 54.8294 58.161 56.8702 57.5402 58.5234L59.4125 59.2266C60.1401 57.2889 60.4877 54.9963 60.4877 52.375H58.4877ZM57.5406 58.5221C56.92 60.1679 56.0491 61.3638 54.9589 62.175L56.1528 63.7796C57.6081 62.6968 58.6841 61.1579 59.412 59.2279L57.5406 58.5221ZM54.962 62.1727C53.8833 62.9689 52.5682 63.3864 50.965 63.3864V65.3864C52.9375 65.3864 54.683 64.8644 56.1497 63.7818L54.962 62.1727ZM50.965 62.3523C52.9496 62.3523 54.4868 61.3453 55.5245 59.5448L53.7917 58.5461C53.0567 59.8214 52.1319 60.3523 50.965 60.3523V62.3523ZM55.5227 59.548C56.5449 57.7894 56.9991 55.3603 56.9991 52.375H54.9991C54.9991 55.2079 54.5592 57.2257 53.7936 58.5429L55.5227 59.548ZM56.9991 52.375C56.9991 50.379 56.7885 48.641 56.3414 47.184L54.4294 47.7706C54.8005 48.9802 54.9991 50.5073 54.9991 52.375H56.9991ZM56.3434 47.1904C55.9081 45.7369 55.2523 44.5408 54.3198 43.6922L52.9737 45.1714C53.5564 45.7017 54.0597 46.5359 54.4274 47.7641L56.3434 47.1904ZM54.3275 43.6993C53.3897 42.8278 52.2515 42.3864 50.965 42.3864V44.3864C51.7541 44.3864 52.4038 44.6419 52.966 45.1643L54.3275 43.6993ZM50.965 42.3864C48.9842 42.3864 47.4491 43.4007 46.4062 45.2038L48.1374 46.2052C48.8823 44.9174 49.8094 44.3864 50.965 44.3864V42.3864ZM46.4062 45.2038C45.386 46.9675 44.9273 49.3939 44.9195 52.3724L46.9195 52.3776C46.9269 49.553 47.3697 47.5325 48.1374 46.2052L46.4062 45.2038ZM44.9195 52.375C44.9195 54.3771 45.126 56.1202 45.5638 57.5823L47.4798 57.0086C47.1145 55.7889 46.9195 54.2517 46.9195 52.375H44.9195ZM45.5658 57.5888C46.0085 59.0318 46.6633 60.2198 47.5837 61.0658L48.9371 59.5933C48.3575 59.0605 47.8532 58.2258 47.4778 57.0021L45.5658 57.5888ZM47.5877 61.0695C48.5295 61.9257 49.6738 62.3523 50.965 62.3523V60.3523C50.15 60.3523 49.4913 60.0971 48.9331 59.5896L47.5877 61.0695ZM61.7503 59.4545H60.7503V60.4545H61.7503V59.4545ZM61.7503 56.6136L60.9054 56.0788L60.7503 56.3237V56.6136H61.7503ZM71.8071 40.7273V39.7273H71.2566L70.9622 40.1924L71.8071 40.7273ZM74.0458 40.7273H75.0458V39.7273H74.0458V40.7273ZM74.0458 44.9091V45.9091H75.0458V44.9091H74.0458ZM72.6253 44.9091V43.9091H72.0742L71.7799 44.375L72.6253 44.9091ZM65.4321 56.2955L64.5867 55.7614L64.4321 56.006V56.2955H65.4321ZM65.4321 56.4773H64.4321V57.4773H65.4321V56.4773ZM79.2162 56.4773H80.2162V55.4773H79.2162V56.4773ZM79.2162 59.4545V60.4545H80.2162V59.4545H79.2162ZM72.7844 64H71.7844V65H72.7844V64ZM72.7844 58.5909L71.7845 58.5734L71.7844 58.5821V58.5909H72.7844ZM72.8071 57.2955L73.807 57.313L73.8071 57.3042V57.2955H72.8071ZM72.8071 40.7273V39.7273H71.8071V40.7273H72.8071ZM76.1367 40.7273H77.1367V39.7273H76.1367V40.7273ZM76.1367 64V65H77.1367V64H76.1367ZM62.7503 59.4545V56.6136H60.7503V59.4545H62.7503ZM62.5952 57.1485L72.652 41.2622L70.9622 40.1924L60.9054 56.0788L62.5952 57.1485ZM71.8071 41.7273H74.0458V39.7273H71.8071V41.7273ZM73.0458 40.7273V44.9091H75.0458V40.7273H73.0458ZM74.0458 43.9091H72.6253V45.9091H74.0458V43.9091ZM71.7799 44.375L64.5867 55.7614L66.2775 56.8295L73.4707 45.4432L71.7799 44.375ZM64.4321 56.2955V56.4773H66.4321V56.2955H64.4321ZM65.4321 57.4773H79.2162V55.4773H65.4321V57.4773ZM78.2162 56.4773V59.4545H80.2162V56.4773H78.2162ZM79.2162 58.4545H61.7503V60.4545H79.2162V58.4545ZM73.7844 64V58.5909H71.7844V64H73.7844ZM73.7842 58.6085L73.807 57.313L71.8073 57.2779L71.7845 58.5734L73.7842 58.6085ZM73.8071 57.2955V40.7273H71.8071V57.2955H73.8071ZM72.8071 41.7273H76.1367V39.7273H72.8071V41.7273ZM75.1367 40.7273V64H77.1367V40.7273H75.1367ZM76.1367 63H72.7844V65H76.1367V63Z" fill="black" mask="url(#path-2-outside-1_16_757)"/>
<path d="M10.3789 29.3305C20.9604 9.26955 43.6207 -2.26886 69.5114 1.81853C91.2972 5.25787 103.166 15.3159 114.328 29.3302C128.022 46.5247 120.552 63.7196 109.348 71.1706C98.1439 78.6217 74.7678 94.0618 60.7971 99.8285C42.7463 107.279 21.3064 101.548 9.13398 83.2069C-4.56007 62.5734 1.00175 47.108 10.3789 29.3305Z" stroke="black" stroke-width="1.5" stroke-linecap="round" stroke-dasharray="5 5"/>
</svg>
