<svg width="104" height="104" viewBox="0 0 104 104" fill="none" xmlns="http://www.w3.org/2000/svg">
<path d="M14.3787 31.8736C22.1895 14.3732 38.9161 4.30755 58.0274 7.87323C74.1086 10.8736 82.8697 19.6478 91.1084 31.8734C101.217 46.8732 95.703 61.8734 87.4327 68.3734C79.1625 74.8734 61.9074 88.3427 51.5949 93.3734C38.2707 99.8732 22.4449 94.8732 13.4598 78.8734C3.35155 60.8735 7.457 47.3821 14.3787 31.8736Z" fill="#D93749" stroke="#D93749"/>
<mask id="path-2-outside-1_16_964" maskUnits="userSpaceOnUse" x="31.29" y="39.1592" width="40" height="27" fill="black">
<rect fill="white" x="31.29" y="39.1592" width="40" height="27"/>
<path d="M41.6903 64.5455C39.8948 64.538 38.3607 64.0645 37.088 63.1251C35.8153 62.1857 34.8418 60.8183 34.1676 59.0228C33.4933 57.2274 33.1562 55.0645 33.1562 52.5342C33.1562 50.0115 33.4933 47.8561 34.1676 46.0683C34.8494 44.2804 35.8266 42.9168 37.0994 41.9774C38.3797 41.038 39.91 40.5683 41.6903 40.5683C43.4706 40.5683 44.9971 41.0418 46.2698 41.9887C47.5426 42.9281 48.516 44.2918 49.1903 46.0796C49.8721 47.8599 50.213 50.0115 50.213 52.5342C50.213 55.0721 49.8759 57.2387 49.2017 59.0342C48.5274 60.8221 47.5539 62.1895 46.2812 63.1365C45.0085 64.0758 43.4782 64.5455 41.6903 64.5455ZM41.6903 61.5115C43.266 61.5115 44.4971 60.7425 45.3835 59.2046C46.2774 57.6668 46.7244 55.4433 46.7244 52.5342C46.7244 50.6024 46.5198 48.9698 46.1107 47.6365C45.7092 46.2955 45.1297 45.2804 44.3721 44.591C43.6221 43.894 42.7282 43.5455 41.6903 43.5455C40.1221 43.5455 38.891 44.3183 37.9971 45.8637C37.1032 47.4092 36.6524 49.6327 36.6448 52.5342C36.6448 54.4736 36.8456 56.1137 37.2471 57.4546C37.6562 58.788 38.2357 59.7993 38.9857 60.4887C39.7357 61.1705 40.6373 61.5115 41.6903 61.5115ZM52.4756 59.6137V56.7728L62.5324 40.8865H64.7711V45.0683H63.3506L56.1574 56.4546V56.6365H69.9415V59.6137H52.4756ZM63.5097 64.1592V58.7501L63.5324 57.4546V40.8865H66.862V64.1592H63.5097Z"/>
</mask>
<path d="M41.6903 64.5455C39.8948 64.538 38.3607 64.0645 37.088 63.1251C35.8153 62.1857 34.8418 60.8183 34.1676 59.0228C33.4933 57.2274 33.1562 55.0645 33.1562 52.5342C33.1562 50.0115 33.4933 47.8561 34.1676 46.0683C34.8494 44.2804 35.8266 42.9168 37.0994 41.9774C38.3797 41.038 39.91 40.5683 41.6903 40.5683C43.4706 40.5683 44.9971 41.0418 46.2698 41.9887C47.5426 42.9281 48.516 44.2918 49.1903 46.0796C49.8721 47.8599 50.213 50.0115 50.213 52.5342C50.213 55.0721 49.8759 57.2387 49.2017 59.0342C48.5274 60.8221 47.5539 62.1895 46.2812 63.1365C45.0085 64.0758 43.4782 64.5455 41.6903 64.5455ZM41.6903 61.5115C43.266 61.5115 44.4971 60.7425 45.3835 59.2046C46.2774 57.6668 46.7244 55.4433 46.7244 52.5342C46.7244 50.6024 46.5198 48.9698 46.1107 47.6365C45.7092 46.2955 45.1297 45.2804 44.3721 44.591C43.6221 43.894 42.7282 43.5455 41.6903 43.5455C40.1221 43.5455 38.891 44.3183 37.9971 45.8637C37.1032 47.4092 36.6524 49.6327 36.6448 52.5342C36.6448 54.4736 36.8456 56.1137 37.2471 57.4546C37.6562 58.788 38.2357 59.7993 38.9857 60.4887C39.7357 61.1705 40.6373 61.5115 41.6903 61.5115ZM52.4756 59.6137V56.7728L62.5324 40.8865H64.7711V45.0683H63.3506L56.1574 56.4546V56.6365H69.9415V59.6137H52.4756ZM63.5097 64.1592V58.7501L63.5324 57.4546V40.8865H66.862V64.1592H63.5097Z" fill="white"/>
<path d="M41.6903 64.5455L41.6861 65.5455H41.6903V64.5455ZM34.1676 59.0228L35.1037 58.6713L34.1676 59.0228ZM34.1676 46.0683L33.2332 45.7119L33.2319 45.7154L34.1676 46.0683ZM37.0994 41.9774L36.5078 41.1711L36.5055 41.1728L37.0994 41.9774ZM46.2698 41.9887L45.6729 42.791L45.676 42.7933L46.2698 41.9887ZM49.1903 46.0796L48.2546 46.4325L48.2564 46.4373L49.1903 46.0796ZM49.2017 59.0342L50.1373 59.387L50.1378 59.3857L49.2017 59.0342ZM46.2812 63.1365L46.8751 63.941L46.8781 63.9387L46.2812 63.1365ZM45.3835 59.2046L44.5189 58.7021L44.5171 58.7053L45.3835 59.2046ZM46.1107 47.6365L45.1527 47.9233L45.1547 47.9298L46.1107 47.6365ZM44.3721 44.591L43.6913 45.3236L43.6991 45.3306L44.3721 44.591ZM37.9971 45.8637L37.1315 45.363L37.9971 45.8637ZM36.6448 52.5342L35.6448 52.5316V52.5342H36.6448ZM37.2471 57.4546L36.2891 57.7415L36.2911 57.748L37.2471 57.4546ZM38.9857 60.4887L38.309 61.225L38.3131 61.2287L38.9857 60.4887ZM41.6945 63.5456C40.0815 63.5387 38.7612 63.1172 37.6819 62.3205L36.4942 63.9297C37.9603 65.0118 39.7082 65.5372 41.6861 65.5455L41.6945 63.5456ZM37.6819 62.3205C36.5949 61.5182 35.7246 60.3246 35.1037 58.6713L33.2314 59.3744C33.959 61.312 35.0357 62.8532 36.4942 63.9297L37.6819 62.3205ZM35.1037 58.6713C34.4828 57.0177 34.1562 54.9806 34.1562 52.5342H32.1562C32.1562 55.1484 32.5039 57.437 33.2314 59.3744L35.1037 58.6713ZM34.1562 52.5342C34.1562 50.0955 34.4827 48.0665 35.1032 46.4211L33.2319 45.7154C32.5039 47.6458 32.1562 49.9274 32.1562 52.5342H34.1562ZM35.1019 46.4246C35.7299 44.7778 36.6042 43.5857 37.6932 42.7819L36.5055 41.1728C35.0491 42.2478 33.9688 43.783 33.2332 45.7119L35.1019 46.4246ZM37.6909 42.7836C38.7791 41.9852 40.0958 41.5683 41.6903 41.5683V39.5683C39.7242 39.5683 37.9802 40.0908 36.5078 41.1711L37.6909 42.7836ZM41.6903 41.5683C43.2831 41.5683 44.5936 41.988 45.6729 42.791L46.8668 41.1864C45.4006 40.0956 43.6581 39.5683 41.6903 39.5683V41.5683ZM45.676 42.7933C46.764 43.5963 47.6341 44.7871 48.2546 46.4325L50.126 45.7268C49.398 43.7964 48.3211 42.2599 46.8637 41.1841L45.676 42.7933ZM48.2564 46.4373C48.8829 48.0731 49.213 50.0964 49.213 52.5342H51.213C51.213 49.9265 50.8613 47.6468 50.1241 45.722L48.2564 46.4373ZM49.213 52.5342C49.213 54.9886 48.8863 57.0294 48.2655 58.6826L50.1378 59.3857C50.8655 57.4481 51.213 55.1555 51.213 52.5342H49.213ZM48.266 58.6813C47.6453 60.327 46.7745 61.523 45.6843 62.3342L46.8781 63.9387C48.3334 62.856 49.4095 61.3171 50.1373 59.387L48.266 58.6813ZM45.6873 62.3319C44.6086 63.1281 43.2935 63.5455 41.6903 63.5455V65.5455C43.6628 65.5455 45.4083 65.0236 46.875 63.941L45.6873 62.3319ZM41.6903 62.5115C43.6749 62.5115 45.2122 61.5044 46.2499 59.704L44.5171 58.7053C43.782 59.9806 42.8572 60.5115 41.6903 60.5115V62.5115ZM46.248 59.7072C47.2703 57.9486 47.7244 55.5195 47.7244 52.5342H45.7244C45.7244 55.3671 45.2846 57.3849 44.5189 58.7021L46.248 59.7072ZM47.7244 52.5342C47.7244 50.5382 47.5138 48.8002 47.0668 47.3431L45.1547 47.9298C45.5259 49.1394 45.7244 50.6665 45.7244 52.5342H47.7244ZM47.0687 47.3496C46.6335 45.896 45.9776 44.6999 45.0451 43.8514L43.6991 45.3306C44.2817 45.8608 44.785 46.695 45.1528 47.9233L47.0687 47.3496ZM45.0528 43.8585C44.115 42.987 42.9769 42.5455 41.6903 42.5455V44.5455C42.4795 44.5455 43.1292 44.8011 43.6914 45.3235L45.0528 43.8585ZM41.6903 42.5455C39.7095 42.5455 38.1745 43.5599 37.1315 45.363L38.8627 46.3644C39.6076 45.0766 40.5347 44.5455 41.6903 44.5455V42.5455ZM37.1315 45.363C36.1113 47.1267 35.6526 49.5531 35.6448 52.5316L37.6448 52.5368C37.6522 49.7122 38.095 47.6917 38.8627 46.3644L37.1315 45.363ZM35.6448 52.5342C35.6448 54.5362 35.8513 56.2794 36.2891 57.7415L38.2051 57.1678C37.8398 55.948 37.6448 54.4109 37.6448 52.5342H35.6448ZM36.2911 57.748C36.7338 59.191 37.3886 60.3789 38.309 61.225L39.6625 59.7525C39.0829 59.2197 38.5785 58.3849 38.2031 57.1613L36.2911 57.748ZM38.3131 61.2287C39.2549 62.0848 40.3991 62.5115 41.6903 62.5115V60.5115C40.8754 60.5115 40.2166 60.2562 39.6584 59.7488L38.3131 61.2287ZM52.4756 59.6137H51.4756V60.6137H52.4756V59.6137ZM52.4756 56.7728L51.6307 56.2379L51.4756 56.4829V56.7728H52.4756ZM62.5324 40.8865V39.8865H61.982L61.6875 40.3516L62.5324 40.8865ZM64.7711 40.8865H65.7711V39.8865H64.7711V40.8865ZM64.7711 45.0683V46.0683H65.7711V45.0683H64.7711ZM63.3506 45.0683V44.0683H62.7995L62.5052 44.5342L63.3506 45.0683ZM56.1574 56.4546L55.312 55.9205L55.1574 56.1652V56.4546H56.1574ZM56.1574 56.6365H55.1574V57.6365H56.1574V56.6365ZM69.9415 56.6365H70.9415V55.6365H69.9415V56.6365ZM69.9415 59.6137V60.6137H70.9415V59.6137H69.9415ZM63.5097 64.1592H62.5097V65.1592H63.5097V64.1592ZM63.5097 58.7501L62.5099 58.7325L62.5097 58.7413V58.7501H63.5097ZM63.5324 57.4546L64.5323 57.4722L64.5324 57.4634V57.4546H63.5324ZM63.5324 40.8865V39.8865H62.5324V40.8865H63.5324ZM66.862 40.8865H67.862V39.8865H66.862V40.8865ZM66.862 64.1592V65.1592H67.862V64.1592H66.862ZM53.4756 59.6137V56.7728H51.4756V59.6137H53.4756ZM53.3206 57.3077L63.3774 41.4213L61.6875 40.3516L51.6307 56.2379L53.3206 57.3077ZM62.5324 41.8865H64.7711V39.8865H62.5324V41.8865ZM63.7711 40.8865V45.0683H65.7711V40.8865H63.7711ZM64.7711 44.0683H63.3506V46.0683H64.7711V44.0683ZM62.5052 44.5342L55.312 55.9205L57.0029 56.9887L64.1961 45.6024L62.5052 44.5342ZM55.1574 56.4546V56.6365H57.1574V56.4546H55.1574ZM56.1574 57.6365H69.9415V55.6365H56.1574V57.6365ZM68.9415 56.6365V59.6137H70.9415V56.6365H68.9415ZM69.9415 58.6137H52.4756V60.6137H69.9415V58.6137ZM64.5097 64.1592V58.7501H62.5097V64.1592H64.5097ZM64.5096 58.7676L64.5323 57.4722L62.5326 57.4371L62.5099 58.7325L64.5096 58.7676ZM64.5324 57.4546V40.8865H62.5324V57.4546H64.5324ZM63.5324 41.8865H66.862V39.8865H63.5324V41.8865ZM65.862 40.8865V64.1592H67.862V40.8865H65.862ZM66.862 63.1592H63.5097V65.1592H66.862V63.1592Z" fill="#D93749" mask="url(#path-2-outside-1_16_964)"/>
<path d="M8.95033 29.4897C17.8846 9.42873 37.0174 -2.10968 58.8778 1.97771C77.2722 5.41705 87.2937 15.4751 96.7175 29.4894C108.28 46.6839 101.973 63.8788 92.5131 71.3298C83.0531 78.7809 63.316 94.2209 51.52 99.9876C36.2792 107.438 18.1768 101.707 7.89925 83.3661C-3.66307 62.7326 1.03295 47.2672 8.95033 29.4897Z" stroke="#D93749" stroke-width="1.5" stroke-linecap="round" stroke-dasharray="5 5"/>
</svg>
