<svg width="20" height="22" viewBox="0 0 20 22" fill="none" xmlns="http://www.w3.org/2000/svg">
<path d="M3.175 11.488C3.175 15.2755 6.25 18.313 10 18.313C13.75 18.313 16.825 15.238 16.825 11.488C16.825 7.70049 13.7875 4.62549 10 4.62549C6.2125 4.62549 3.175 7.70049 3.175 11.488ZM9.25 11.113C9.25 9.91299 9.25 8.71299 9.25 7.47549C9.25 7.06299 9.5875 6.72549 10 6.72549C10.4125 6.72549 10.75 7.10049 10.75 7.47549V8.00049V10.888H12.925C13.3375 10.888 13.675 11.2255 13.675 11.638C13.675 12.0505 13.3 12.388 12.925 12.388C11.95 12.388 10.975 12.388 10 12.388C9.5875 12.388 9.25 12.0505 9.25 11.638C9.25 11.4505 9.25 11.3005 9.25 11.113Z" fill="#282828"/>
<path d="M19.1875 8.56298C18.0625 5.00048 14.9125 2.45048 11.2375 1.92548C11.275 1.81298 11.3125 1.70048 11.3125 1.62548C11.3125 1.32548 11.125 1.06298 10.9 0.950475C10.6 0.800475 10.3 0.875475 10.0375 1.10048C9.775 1.32548 9.5125 1.55048 9.25 1.77548C9.1375 1.88798 8.9875 1.96298 8.9125 2.07548C8.8375 2.18798 8.8 2.33798 8.8 2.48798C8.8 2.82548 9.025 3.01298 9.2125 3.27548C9.4375 3.53798 9.6625 3.83798 9.925 4.10048C10.3375 4.58798 11.2 4.21298 11.2 3.61298V3.57548C11.2 3.53798 11.2 3.50048 11.2 3.46298C13.8625 3.87548 16.225 5.56298 17.425 8.03798C18.775 10.8505 18.325 14.3755 16.3 16.738C14.275 19.138 11.0125 20.188 7.975 19.4005C4.975 18.613 2.6875 16.138 2.0875 13.138C1.3 9.38798 3.4 5.63798 6.8125 4.06298C7.1875 3.91298 7.2625 3.35048 7.075 3.05048C6.85 2.67548 6.4375 2.60048 6.0625 2.78798C2.5 4.40048 0.212497 8.15048 0.437497 12.088C0.662497 15.8005 2.9875 19.063 6.4 20.488C9.85 21.913 13.9 21.163 16.6 18.6505C19.2625 16.063 20.3125 12.088 19.1875 8.56298Z" fill="#282828"/>
</svg>
