<svg width="24" height="24" viewBox="0 0 24 24" fill="none" xmlns="http://www.w3.org/2000/svg">
<path d="M17.253 3.00049L6.747 3.00249C5.78698 3.0029 4.86364 3.37129 4.167 4.03184C3.47037 4.69239 3.05343 5.59485 3.002 6.55349L2.997 6.75349V11.2455C2.99706 11.4355 3.06924 11.6184 3.19897 11.7573C3.3287 11.8961 3.5063 11.9806 3.69588 11.9935C3.88546 12.0065 4.07289 11.947 4.2203 11.8271C4.3677 11.7071 4.4641 11.5357 4.49 11.3475L4.497 11.2455V6.75249C4.497 5.56249 5.422 4.58749 6.593 4.50749L6.747 4.50249L17.253 4.50049C17.8164 4.50019 18.3595 4.71139 18.7747 5.0923C19.1898 5.47322 19.4469 5.9961 19.495 6.55749L19.503 6.71649L19.501 17.2525C19.5003 17.8226 19.2836 18.3712 18.8945 18.7878C18.5053 19.2044 17.9727 19.458 17.404 19.4975L17.25 19.5025H12.754C12.564 19.5025 12.3811 19.5747 12.2422 19.7045C12.1034 19.8342 12.0189 20.0118 12.006 20.2014C11.993 20.3909 12.0525 20.5784 12.1724 20.7258C12.2923 20.8732 12.4637 20.9696 12.652 20.9955L12.754 21.0025H17.25C18.2099 21.0021 19.1331 20.6338 19.8297 19.9735C20.5263 19.3132 20.9433 18.4109 20.995 17.4525L21.001 17.2525L21.002 6.75249L20.998 6.54949C20.9487 5.62523 20.5592 4.75188 19.9045 4.09758C19.2499 3.44328 18.3763 3.05429 17.452 3.00549L17.253 3.00049ZM14.059 9.00249H8.004C7.75048 9.00475 7.50729 9.10322 7.32362 9.27798C7.13995 9.45273 7.02951 9.69073 7.01464 9.94381C6.99978 10.1969 7.0816 10.4462 7.24355 10.6412C7.4055 10.8363 7.63549 10.9626 7.887 10.9945L8.004 11.0015H11.584L5.04 17.5435C4.86768 17.7156 4.76406 17.9446 4.74859 18.1876C4.73313 18.4306 4.80688 18.671 4.956 18.8635L5.039 18.9575C5.21119 19.1297 5.44029 19.2331 5.68332 19.2484C5.92634 19.2637 6.16659 19.1897 6.359 19.0405L6.453 18.9575L13.001 12.4125V16.0025C13.0008 16.2477 13.0908 16.4845 13.2538 16.6678C13.4167 16.8511 13.6414 16.968 13.885 16.9965L14.001 17.0025C14.2459 17.0025 14.4823 16.9125 14.6654 16.7498C14.8484 16.587 14.9653 16.3627 14.994 16.1195L15.001 16.0025V10.0025L14.998 9.91749L14.982 9.81249L14.973 9.76649L14.954 9.70049L14.918 9.60149L14.854 9.47949C14.8126 9.41186 14.7632 9.34942 14.707 9.29349L14.598 9.19849L14.476 9.12049L14.374 9.07349L14.286 9.04249L14.175 9.01549L14.059 9.00249Z" fill="black"/>
</svg>
