<svg width="1440" height="434" viewBox="0 0 1440 434" fill="none" xmlns="http://www.w3.org/2000/svg">
<path d="M1128.77 801.906C1089.82 801.906 1051.14 796.633 1015.89 785.873C936.894 761.756 875.176 704.273 850.799 632.12C828.789 566.983 838.497 498.378 847.075 437.857C847.965 431.565 848.854 425.289 849.698 419.063C857.327 363.075 861.502 314.25 835.196 283.809C808.256 252.644 757.196 257.507 736.498 261.056C681.593 270.453 630.503 295.818 576.412 322.662C532.92 344.248 487.966 366.574 440.101 380.374C361.287 403.094 167.69 442.768 72.5494 320.969C49.7103 291.727 34.4088 253.63 27.0822 207.762C15.4139 134.69 25.7405 52.4005 56.9163 -30.2336C75.3233 -79.0091 100.544 -123.316 124.936 -166.161C160.831 -229.213 194.735 -288.765 206.569 -359.094C209.901 -378.923 211.212 -398.867 210.459 -418.351C209.418 -444.85 204.444 -464.613 195.233 -478.807C181.017 -500.706 152.223 -514.111 118.182 -514.67C91.8459 -515.113 65.1324 -508.986 36.8661 -502.497C28.65 -500.607 20.1475 -498.669 11.6601 -496.895C-45.5659 -484.935 -104.088 -480.499 -162.264 -483.736C-177.219 -484.573 -202.259 -485.953 -224.736 -493.477C-264.596 -506.768 -278.691 -533.234 -283.5 -553.079L-228.113 -568.998C-223.425 -549.613 -176.887 -547.034 -159.37 -546.064C-105.762 -543.091 -51.8674 -547.165 0.851074 -558.188C8.841 -559.864 17.0872 -561.753 25.0621 -563.577C55.1675 -570.477 86.2981 -577.607 119.042 -577.064C172.077 -576.194 216.896 -553.523 241.996 -514.834C257.765 -490.537 266.162 -459.849 267.685 -420.98C268.634 -396.83 267.021 -372.204 262.906 -347.792C249.112 -265.864 210.73 -198.426 173.615 -133.222C149.388 -90.6567 126.504 -50.4568 109.906 -6.46191C82.8459 65.2638 73.7253 135.642 83.5393 197.101C89.0871 231.83 100.062 259.906 116.193 280.54C145.213 317.684 192.248 338.449 255.986 342.228C322.74 346.187 390.835 330.038 425.478 320.049C468.654 307.613 509.463 287.341 552.684 265.886C607.905 238.467 664.995 210.128 727.618 199.417C791.281 188.525 844.301 203.31 876.909 241.046C924.397 295.982 913.542 375.593 906.367 428.262C905.507 434.604 904.603 440.994 903.683 447.401C895.799 503.044 887.658 560.576 904.542 610.567C922.331 663.186 970.904 707.329 1031.34 725.778C1107.05 748.893 1201.06 742.847 1270.81 710.368C1296.41 698.441 1319.78 680.058 1339.51 656.779C1298.84 650.98 1261.66 638.232 1229.36 618.781C1195.87 598.623 1166.97 570.071 1145.76 536.229C1122.97 499.89 1110.37 459.197 1109.3 418.586C1108.18 376.267 1121.6 331.944 1146.11 297.001C1172.19 259.824 1207.98 236.183 1246.9 230.401C1286.4 224.536 1326.52 236.315 1362.95 264.44C1394.84 289.049 1421.49 324.732 1438 364.882C1466.49 434.193 1467.4 517.764 1440.58 594.697C1526.63 583.493 1600.45 545.954 1648.95 488.603C1682.48 448.962 1705.12 399.628 1729.09 347.37C1756.92 286.749 1785.68 224.059 1833.47 175.58L1872.5 221.266C1832.28 262.058 1807.04 317.06 1780.31 375.298C1755.61 429.133 1730.07 484.792 1691.05 530.906C1631.96 600.776 1542.94 645.74 1440.41 657.519C1430.07 658.702 1419.85 659.523 1409.78 659.966C1380.27 708.249 1339.78 746.116 1293.31 767.752C1244.9 790.292 1186.54 801.89 1128.74 801.906H1128.77ZM1266.73 291.349C1262.72 291.349 1258.69 291.645 1254.64 292.236C1205.31 299.547 1164.97 356.586 1166.57 416.763C1168.07 474.064 1203.61 531.908 1257.08 564.108C1295.64 587.337 1338.47 595.929 1376.91 597.605C1380.28 590.294 1383.35 582.754 1386.14 575.032C1408.51 512.753 1408.35 445.446 1385.72 390.379C1364.72 339.287 1318.18 291.349 1266.73 291.349Z" fill="#D93749"/>
</svg>
