<svg width="12" height="12" viewBox="0 0 12 12" fill="none" xmlns="http://www.w3.org/2000/svg">
<path d="M9.04904 6.86691C8.90508 7.36562 8.62874 7.83734 8.23543 8.23193C6.9758 9.49156 4.94241 9.49156 3.68279 8.23193C2.42316 6.97231 2.42316 4.93892 3.68279 3.6793C4.0761 3.28598 4.5491 3.00964 5.04781 2.86568V0.0842285C3.84089 0.268031 2.67252 0.832291 1.74194 1.76416C-0.580648 4.08675 -0.580648 7.85276 1.74194 10.1741C4.06453 12.4967 7.83055 12.4967 10.1519 10.1741C11.0837 9.2422 11.648 8.07512 11.8318 6.8682H9.05032L9.04904 6.86691Z" fill="#666D80"/>
<path d="M11.9269 0.0905762V6.04679H9.18525V2.81933H5.97064V0.0905762H11.9269Z" fill="#666D80"/>
</svg>
