<svg width="73" height="70" viewBox="0 0 73 70" fill="none" xmlns="http://www.w3.org/2000/svg">
<path d="M52.8503 10.1771L60.5777 8.10652L71.9657 50.6073L52.6472 55.7836C46.8517 57.3366 43.5056 60.3037 43.9715 62.0423" fill="#D93749"/>
<path d="M52.8503 10.1771L60.5777 8.10652L71.9657 50.6073L52.6472 55.7836C46.8517 57.3366 43.5056 60.3037 43.9715 62.0423L52.8503 10.1771Z" stroke="#0C0F03" stroke-width="1.5" stroke-miterlimit="10" stroke-linecap="round" stroke-linejoin="round"/>
<path d="M32.6345 19.7347C31.7027 16.2573 33.3923 7.10828 41.6993 4.88244L50.779 2.44954L62.6847 46.8821L52.9288 49.4962C47.0367 51.075 42.5213 56.633 44.0225 62.2354" stroke="white" stroke-width="1.5" stroke-miterlimit="10" stroke-linecap="round" stroke-linejoin="round"/>
<path d="M32.6344 19.7349C32.1168 17.803 27.7355 16.9064 18.0762 19.4946L2.6214 23.6357L14.0094 66.1365L33.328 60.9601C39.1235 59.4072 43.5048 60.3038 43.9707 62.0424L32.6344 19.7349Z" stroke="white" stroke-width="1.5" stroke-miterlimit="10" stroke-linecap="round" stroke-linejoin="round"/>
</svg>
