<svg width="376" height="910" viewBox="0 0 376 910" fill="none" xmlns="http://www.w3.org/2000/svg">
<path d="M-27.5072 991.314C-47.1653 949.025 -61.3534 904.552 -68.2581 861.231C-83.7334 764.138 -56.7481 670.115 3.91698 609.733C58.6825 555.218 132.96 533.507 198.493 514.368C205.305 512.376 212.1 510.391 218.822 508.381C279.291 490.342 330.773 471.923 348.283 429.055C366.204 385.159 335.519 332.015 321.486 311.213C284.276 256.028 232.842 212.489 178.4 166.388C134.622 129.322 89.358 91.0149 51.2486 45.5414C-11.5004 -29.3369 -149.319 -220.853 -74.1579 -381.393C-56.1114 -419.933 -25.3064 -454.454 17.3812 -483.97C85.3898 -530.988 173.818 -558.461 273.117 -563.463C331.731 -566.41 389.265 -559.859 444.902 -553.521C526.779 -544.195 604.112 -535.385 681.207 -555.599C702.941 -561.304 723.771 -569.256 743.094 -579.233C769.367 -592.819 786.843 -607.511 796.549 -624.183C811.52 -649.91 810.546 -687.47 793.933 -724.686C781.091 -753.485 761.414 -779.604 740.587 -807.239C734.531 -815.27 728.28 -823.589 722.202 -831.969C681.229 -888.47 647.211 -949.916 621.126 -1014.59C614.426 -1031.22 603.186 -1059.05 599.452 -1086.99C592.778 -1136.51 612.429 -1164.25 630.071 -1178.8L674.12 -1126.16C656.882 -1111.96 677.758 -1060.22 685.618 -1040.75C709.664 -981.157 740.981 -924.565 778.733 -872.517C784.459 -864.631 790.531 -856.567 796.4 -848.767C818.57 -819.329 841.49 -788.885 857.465 -753.085C883.348 -695.101 883.039 -635.789 856.581 -590.353C839.967 -561.812 813.17 -538.271 774.631 -518.345C750.689 -505.962 724.971 -496.136 698.206 -489.128C608.394 -465.588 520.826 -475.553 436.157 -485.192C380.886 -491.482 328.685 -497.427 275.818 -494.764C189.627 -490.422 113.852 -467.238 56.6538 -427.693C24.3325 -405.344 1.47837 -380.232 -11.2481 -353.021C-34.1666 -304.055 -31.4304 -243.233 -3.08661 -172.263C26.596 -97.9356 77.2907 -31.604 104.874 1.30852C139.239 42.3332 180.333 77.1048 223.842 113.939C279.436 160.996 336.905 209.651 379.339 272.598C422.48 336.589 434.284 401.097 412.578 454.236C380.986 531.612 295 557.254 238.116 574.224C231.269 576.272 224.35 578.294 217.407 580.308C157.158 597.906 94.8694 616.114 52.835 657.944C8.59892 701.992 -11.5299 775.473 0.31205 849.755C15.1422 942.809 68.6969 1042.02 136.742 1102.48C161.721 1124.66 192.104 1141.38 225.603 1151.86C210.943 1104.98 205.074 1058.63 208.442 1014.42C211.93 968.594 226.221 923.799 249.741 884.863C274.987 843.036 309.779 810.225 350.307 789.972C392.54 768.867 444.135 762.596 491.841 772.779C542.599 783.615 584.566 811.353 610.057 850.891C635.92 891.011 644.252 940.098 634.197 992.875C625.4 1039.06 602.766 1084.77 570.493 1121.56C514.779 1185.07 430.722 1225.34 339.387 1232.39C394.142 1320.54 469.358 1383.04 551.83 1408.72C608.837 1426.49 670.154 1427.88 735.098 1429.33C810.446 1431.04 888.358 1432.8 961.501 1461.89L934.995 1525.73C873.446 1501.25 805.089 1499.71 732.706 1498.07C665.795 1496.55 596.62 1495 530.298 1474.32C429.819 1443.01 339.425 1367.51 275.773 1261.75C269.358 1251.08 263.37 1240.37 257.839 1229.64C194.124 1220.31 135.396 1194.16 90.0617 1153.87C42.84 1111.92 1.66177 1054.02 -27.5224 991.281L-27.5072 991.314ZM558.425 901.063C556.401 896.71 554.071 892.48 551.427 888.355C519.141 838.244 441.101 821.263 381.052 851.287C323.865 879.861 283.3 945.627 277.722 1018.81C273.691 1071.6 286.615 1122.13 304.32 1164.65C313.409 1164.86 322.587 1164.66 331.803 1164.05C406.074 1159.06 474.056 1127.24 518.325 1076.79C559.396 1029.97 584.39 956.919 558.425 901.063Z" fill="#D93749"/>
</svg>
