<svg width="376" height="743" viewBox="0 0 376 743" fill="none" xmlns="http://www.w3.org/2000/svg">
<path d="M1146.34 1148C1103.56 1148 1061.07 1142.21 1022.36 1130.39C935.608 1103.9 867.826 1040.76 841.055 961.506C816.882 889.959 827.545 814.604 836.965 748.126C837.942 741.215 838.919 734.322 839.846 727.483C848.224 665.986 852.81 612.357 823.919 578.92C794.332 544.689 738.256 550.03 715.524 553.928C655.225 564.249 599.115 592.111 539.711 621.596C491.946 645.307 442.574 669.83 390.008 684.987C303.451 709.943 90.8329 753.522 -13.6547 619.737C-38.7377 587.617 -55.5425 545.771 -63.5889 495.39C-76.4036 415.127 -65.0625 324.74 -30.8238 233.974C-10.6084 180.399 17.0906 131.732 43.8789 84.6714C83.2997 15.4153 120.535 -49.9973 133.532 -127.247C137.191 -149.027 138.631 -170.934 137.804 -192.335C136.661 -221.441 131.198 -243.149 121.082 -258.74C105.469 -282.794 73.846 -297.518 36.4616 -298.132C7.53754 -298.619 -21.8005 -291.888 -52.8438 -284.761C-61.8671 -282.686 -71.2049 -280.556 -80.5262 -278.607C-143.374 -265.471 -207.646 -260.599 -271.538 -264.154C-287.962 -265.074 -315.462 -266.59 -340.148 -274.854C-383.923 -289.452 -399.403 -318.523 -404.685 -340.321L-343.856 -357.806C-338.707 -336.513 -287.597 -333.68 -268.359 -332.616C-209.484 -329.35 -150.295 -333.825 -92.3972 -345.933C-83.6222 -347.773 -74.5659 -349.848 -65.8075 -351.851C-32.7443 -359.43 1.4447 -367.262 37.4053 -366.666C95.6508 -365.71 144.873 -340.808 172.44 -298.312C189.758 -271.624 198.98 -237.916 200.652 -195.222C201.695 -168.696 199.923 -141.647 195.403 -114.832C180.254 -24.8428 138.102 49.2314 97.3396 120.851C70.7334 167.606 45.6007 211.761 27.3721 260.085C-2.34671 338.869 -12.3633 416.173 -1.58511 483.679C4.50766 521.826 16.5608 552.664 34.2762 575.329C66.1473 616.128 117.803 638.937 187.804 643.087C261.116 647.436 335.901 629.698 373.948 618.727C421.366 605.067 466.184 582.799 513.651 559.233C574.297 529.116 636.997 497.989 705.772 486.223C775.69 474.26 833.919 490.5 869.73 531.949C921.883 592.291 909.963 679.736 902.082 737.588C901.138 744.553 900.144 751.573 899.135 758.61C890.475 819.728 881.535 882.921 900.078 937.832C919.615 995.629 972.96 1044.12 1039.33 1064.38C1122.48 1089.77 1225.73 1083.13 1302.33 1047.45C1330.45 1034.35 1356.11 1014.16 1377.78 988.592C1333.11 982.222 1292.28 968.219 1256.8 946.854C1220.03 924.713 1188.29 893.351 1165 856.179C1139.96 816.264 1126.12 771.567 1124.95 726.96C1123.72 680.476 1138.46 631.791 1165.38 593.41C1194.02 552.574 1233.33 526.608 1276.07 520.256C1319.45 513.814 1363.51 526.752 1403.53 557.645C1438.54 584.676 1467.82 623.869 1485.94 667.971C1517.24 744.102 1518.23 835.896 1488.78 920.4C1583.28 908.094 1664.36 866.861 1717.62 803.867C1754.44 760.325 1779.31 706.136 1805.63 648.735C1836.2 582.15 1867.79 513.291 1920.27 460.04L1963.13 510.223C1918.96 555.028 1891.25 615.442 1861.89 679.411C1834.76 738.544 1806.71 799.68 1763.86 850.332C1698.96 927.077 1601.19 976.466 1488.59 989.404C1477.24 990.703 1466.01 991.605 1454.95 992.093C1422.55 1045.13 1378.08 1086.72 1327.04 1110.48C1273.87 1135.24 1209.78 1147.98 1146.31 1148H1146.34ZM1297.85 587.202C1293.44 587.202 1289.02 587.527 1284.57 588.177C1230.4 596.207 1186.09 658.858 1187.85 724.957C1189.5 787.897 1228.52 851.433 1287.25 886.801C1329.6 912.316 1376.64 921.754 1418.86 923.594C1422.55 915.564 1425.93 907.282 1428.99 898.801C1453.56 830.393 1453.38 756.463 1428.53 695.977C1405.46 639.857 1354.35 587.202 1297.85 587.202Z" fill="#D93749"/>
</svg>
