<svg width="334" height="136" viewBox="0 0 334 136" fill="none" xmlns="http://www.w3.org/2000/svg">
<g filter="url(#filter0_di_1_1934)">
<rect x="50" y="46" width="234" height="36" rx="18" fill="#060807" shape-rendering="crispEdges"/>
<rect x="50.5" y="46.5" width="233" height="35" rx="17.5" stroke="white" stroke-opacity="0.08" shape-rendering="crispEdges"/>
<mask id="mask0_1_1934" style="mask-type:alpha" maskUnits="userSpaceOnUse" x="50" y="46" width="235" height="36">
<rect x="50" y="46" width="235" height="36" fill="url(#paint0_angular_1_1934)"/>
</mask>
<g mask="url(#mask0_1_1934)">
<rect x="50.5" y="46.5" width="233" height="35" rx="17.5" stroke="url(#paint1_linear_1_1934)"/>
</g>
<path d="M67.233 69V58.8182H73.3778V59.9119H68.4659V63.3523H73.0597V64.446H68.4659V67.9062H73.4574V69H67.233ZM76.6143 64.4062V69H75.4411V61.3636H76.5746V62.5568H76.674C76.853 62.169 77.1248 61.8575 77.4893 61.6222C77.8539 61.3835 78.3246 61.2642 78.9013 61.2642C79.4183 61.2642 79.8707 61.3703 80.2585 61.5824C80.6463 61.7912 80.9479 62.1094 81.1634 62.5369C81.3788 62.9612 81.4865 63.4981 81.4865 64.1477V69H80.3132V64.2273C80.3132 63.6274 80.1574 63.16 79.8459 62.8253C79.5343 62.4872 79.1068 62.3182 78.5632 62.3182C78.1887 62.3182 77.8539 62.3994 77.5589 62.5618C77.2673 62.7242 77.0369 62.9612 76.8679 63.2727C76.6989 63.5843 76.6143 63.9621 76.6143 64.4062ZM84.8038 64.4062V69H83.6305V58.8182H84.8038V62.5568H84.9032C85.0822 62.1624 85.3507 61.8492 85.7086 61.6172C86.0699 61.3819 86.5505 61.2642 87.1504 61.2642C87.6708 61.2642 88.1265 61.3686 88.5176 61.5774C88.9087 61.7829 89.2119 62.0994 89.4274 62.527C89.6461 62.9512 89.7555 63.4915 89.7555 64.1477V69H88.5822V64.2273C88.5822 63.6207 88.4248 63.1518 88.1099 62.8203C87.7984 62.4856 87.3658 62.3182 86.8123 62.3182C86.4279 62.3182 86.0832 62.3994 85.7782 62.5618C85.4766 62.7242 85.238 62.9612 85.0623 63.2727C84.89 63.5843 84.8038 63.9621 84.8038 64.4062ZM94.1491 69.179C93.6652 69.179 93.2261 69.0878 92.8317 68.9055C92.4373 68.7199 92.1241 68.4531 91.892 68.1051C91.66 67.7538 91.544 67.3295 91.544 66.8324C91.544 66.3949 91.6302 66.0402 91.8026 65.7685C91.9749 65.4934 92.2053 65.2779 92.4936 65.1222C92.782 64.9664 93.1001 64.8504 93.4482 64.7741C93.7995 64.6946 94.1525 64.6316 94.5071 64.5852C94.9711 64.5256 95.3473 64.4808 95.6357 64.451C95.9273 64.4179 96.1394 64.3632 96.272 64.2869C96.4079 64.2107 96.4759 64.0781 96.4759 63.8892V63.8494C96.4759 63.3589 96.3416 62.9777 96.0732 62.706C95.808 62.4342 95.4053 62.2983 94.8651 62.2983C94.3049 62.2983 93.8658 62.4209 93.5476 62.6662C93.2294 62.9115 93.0057 63.1733 92.8764 63.4517L91.7628 63.054C91.9616 62.59 92.2268 62.2287 92.5582 61.9702C92.893 61.7083 93.2576 61.526 93.652 61.4233C94.0497 61.3172 94.4408 61.2642 94.8253 61.2642C95.0705 61.2642 95.3523 61.294 95.6705 61.3537C95.992 61.41 96.3018 61.5277 96.6001 61.7067C96.9018 61.8857 97.152 62.1558 97.3509 62.517C97.5497 62.8783 97.6491 63.3622 97.6491 63.9688V69H96.4759V67.9659H96.4162C96.3366 68.1316 96.2041 68.3089 96.0185 68.4979C95.8329 68.6868 95.5859 68.8475 95.2777 68.9801C94.9695 69.1127 94.5933 69.179 94.1491 69.179ZM94.3281 68.125C94.7921 68.125 95.1832 68.0339 95.5014 67.8516C95.8229 67.6693 96.0649 67.4339 96.2273 67.1456C96.393 66.8572 96.4759 66.554 96.4759 66.2358V65.1619C96.4261 65.2216 96.3168 65.2763 96.1477 65.326C95.982 65.3724 95.7898 65.4138 95.571 65.4503C95.3556 65.4834 95.1451 65.5133 94.9396 65.5398C94.7375 65.563 94.5734 65.5829 94.4474 65.5994C94.1425 65.6392 93.8575 65.7038 93.5923 65.7933C93.3305 65.8795 93.1184 66.0104 92.956 66.1861C92.7969 66.3584 92.7173 66.5937 92.7173 66.892C92.7173 67.2997 92.8681 67.608 93.1697 67.8168C93.4747 68.0223 93.8608 68.125 94.3281 68.125ZM100.964 64.4062V69H99.7907V61.3636H100.924V62.5568H101.024C101.203 62.169 101.474 61.8575 101.839 61.6222C102.204 61.3835 102.674 61.2642 103.251 61.2642C103.768 61.2642 104.22 61.3703 104.608 61.5824C104.996 61.7912 105.298 62.1094 105.513 62.5369C105.728 62.9612 105.836 63.4981 105.836 64.1477V69H104.663V64.2273C104.663 63.6274 104.507 63.16 104.195 62.8253C103.884 62.4872 103.456 62.3182 102.913 62.3182C102.538 62.3182 102.204 62.3994 101.909 62.5618C101.617 62.7242 101.387 62.9612 101.218 63.2727C101.048 63.5843 100.964 63.9621 100.964 64.4062ZM111.082 69.1591C110.366 69.1591 109.75 68.9901 109.233 68.652C108.716 68.3139 108.318 67.8482 108.04 67.255C107.761 66.6617 107.622 65.9839 107.622 65.2216C107.622 64.446 107.765 63.7616 108.05 63.1683C108.338 62.5717 108.739 62.1061 109.253 61.7713C109.77 61.4332 110.373 61.2642 111.062 61.2642C111.599 61.2642 112.083 61.3636 112.514 61.5625C112.945 61.7614 113.298 62.0398 113.573 62.3977C113.848 62.7557 114.019 63.1733 114.085 63.6506H112.912C112.822 63.3026 112.624 62.9943 112.315 62.7259C112.01 62.4541 111.599 62.3182 111.082 62.3182C110.625 62.3182 110.224 62.4375 109.879 62.6761C109.538 62.9115 109.271 63.2446 109.079 63.6754C108.89 64.103 108.795 64.6051 108.795 65.1818C108.795 65.7718 108.888 66.2855 109.074 66.723C109.263 67.1605 109.528 67.5002 109.869 67.7422C110.214 67.9841 110.618 68.1051 111.082 68.1051C111.387 68.1051 111.664 68.0521 111.913 67.946C112.161 67.84 112.372 67.6875 112.544 67.4886C112.716 67.2898 112.839 67.0511 112.912 66.7727H114.085C114.019 67.2235 113.855 67.6295 113.593 67.9908C113.335 68.3487 112.991 68.6338 112.564 68.8459C112.14 69.0547 111.646 69.1591 111.082 69.1591ZM119.002 69.1591C118.266 69.1591 117.632 68.9967 117.098 68.6719C116.568 68.3438 116.158 67.8864 115.87 67.2997C115.585 66.7098 115.442 66.0237 115.442 65.2415C115.442 64.4593 115.585 63.7699 115.87 63.1733C116.158 62.5734 116.559 62.1061 117.073 61.7713C117.59 61.4332 118.193 61.2642 118.883 61.2642C119.281 61.2642 119.673 61.3305 120.061 61.4631C120.449 61.5956 120.802 61.8111 121.12 62.1094C121.438 62.4044 121.692 62.7955 121.881 63.2827C122.07 63.7699 122.164 64.3698 122.164 65.0824V65.5795H116.278V64.5653H120.971C120.971 64.1345 120.885 63.75 120.712 63.4119C120.543 63.0739 120.301 62.8071 119.987 62.6115C119.675 62.416 119.307 62.3182 118.883 62.3182C118.415 62.3182 118.011 62.4342 117.67 62.6662C117.332 62.8949 117.071 63.1932 116.889 63.5611C116.707 63.929 116.616 64.3234 116.616 64.7443V65.4205C116.616 65.9972 116.715 66.486 116.914 66.8871C117.116 67.2848 117.396 67.5881 117.754 67.7969C118.112 68.0024 118.528 68.1051 119.002 68.1051C119.31 68.1051 119.589 68.062 119.837 67.9759C120.089 67.8864 120.306 67.7538 120.489 67.5781C120.671 67.3991 120.812 67.1771 120.911 66.9119L122.045 67.2301C121.925 67.6146 121.725 67.9527 121.443 68.2443C121.161 68.5327 120.813 68.758 120.399 68.9205C119.985 69.0795 119.519 69.1591 119.002 69.1591ZM127.17 58.8182H128.582L131.406 63.571H131.526L134.349 58.8182H135.761L132.082 64.804V69H130.849V64.804L127.17 58.8182ZM139.219 69.1591C138.53 69.1591 137.925 68.995 137.404 68.6669C136.887 68.3388 136.483 67.8797 136.191 67.2898C135.903 66.6998 135.759 66.0104 135.759 65.2216C135.759 64.4261 135.903 63.7318 136.191 63.1385C136.483 62.5452 136.887 62.0845 137.404 61.7564C137.925 61.4283 138.53 61.2642 139.219 61.2642C139.908 61.2642 140.512 61.4283 141.029 61.7564C141.549 62.0845 141.953 62.5452 142.242 63.1385C142.533 63.7318 142.679 64.4261 142.679 65.2216C142.679 66.0104 142.533 66.6998 142.242 67.2898C141.953 67.8797 141.549 68.3388 141.029 68.6669C140.512 68.995 139.908 69.1591 139.219 69.1591ZM139.219 68.1051C139.743 68.1051 140.174 67.9709 140.512 67.7024C140.85 67.4339 141.1 67.081 141.262 66.6435C141.425 66.206 141.506 65.732 141.506 65.2216C141.506 64.7112 141.425 64.2356 141.262 63.7947C141.1 63.3539 140.85 62.9976 140.512 62.7259C140.174 62.4541 139.743 62.3182 139.219 62.3182C138.695 62.3182 138.265 62.4541 137.926 62.7259C137.588 62.9976 137.338 63.3539 137.176 63.7947C137.013 64.2356 136.932 64.7112 136.932 65.2216C136.932 65.732 137.013 66.206 137.176 66.6435C137.338 67.081 137.588 67.4339 137.926 67.7024C138.265 67.9709 138.695 68.1051 139.219 68.1051ZM149.283 65.8778V61.3636H150.456V69H149.283V67.7074H149.203C149.024 68.0952 148.746 68.425 148.368 68.6967C147.99 68.9652 147.513 69.0994 146.936 69.0994C146.459 69.0994 146.035 68.995 145.664 68.7862C145.292 68.5741 145.001 68.2559 144.789 67.8317C144.576 67.4041 144.47 66.8655 144.47 66.2159V61.3636H145.644V66.1364C145.644 66.6932 145.799 67.1373 146.111 67.4688C146.426 67.8002 146.827 67.9659 147.314 67.9659C147.606 67.9659 147.902 67.8913 148.204 67.7422C148.509 67.593 148.764 67.3643 148.97 67.0561C149.178 66.7479 149.283 66.3551 149.283 65.8778ZM152.605 69V61.3636H153.739V62.517H153.818C153.957 62.1392 154.209 61.8326 154.574 61.5973C154.938 61.362 155.349 61.2443 155.807 61.2443C155.893 61.2443 156.001 61.246 156.13 61.2493C156.259 61.2526 156.357 61.2576 156.423 61.2642V62.4574C156.384 62.4474 156.292 62.4325 156.15 62.4126C156.011 62.3894 155.863 62.3778 155.707 62.3778C155.336 62.3778 155.005 62.4557 154.713 62.6115C154.425 62.764 154.196 62.9761 154.027 63.2479C153.861 63.5163 153.778 63.8229 153.778 64.1676V69H152.605ZM161.911 69V58.8182H168.016V59.9119H163.144V63.3523H167.558V64.446H163.144V69H161.911ZM169.968 69V61.3636H171.142V69H169.968ZM170.565 60.0909C170.336 60.0909 170.139 60.013 169.973 59.8572C169.811 59.7015 169.73 59.5142 169.73 59.2955C169.73 59.0767 169.811 58.8894 169.973 58.7337C170.139 58.5779 170.336 58.5 170.565 58.5C170.794 58.5 170.989 58.5779 171.152 58.7337C171.317 58.8894 171.4 59.0767 171.4 59.2955C171.4 59.5142 171.317 59.7015 171.152 59.8572C170.989 60.013 170.794 60.0909 170.565 60.0909ZM174.464 64.4062V69H173.291V61.3636H174.424V62.5568H174.524C174.703 62.169 174.974 61.8575 175.339 61.6222C175.704 61.3835 176.174 61.2642 176.751 61.2642C177.268 61.2642 177.72 61.3703 178.108 61.5824C178.496 61.7912 178.798 62.1094 179.013 62.5369C179.228 62.9612 179.336 63.4981 179.336 64.1477V69H178.163V64.2273C178.163 63.6274 178.007 63.16 177.695 62.8253C177.384 62.4872 176.956 62.3182 176.413 62.3182C176.038 62.3182 175.704 62.3994 175.409 62.5618C175.117 62.7242 174.887 62.9612 174.718 63.2727C174.548 63.5843 174.464 63.9621 174.464 64.4062ZM183.727 69.179C183.243 69.179 182.804 69.0878 182.41 68.9055C182.015 68.7199 181.702 68.4531 181.47 68.1051C181.238 67.7538 181.122 67.3295 181.122 66.8324C181.122 66.3949 181.208 66.0402 181.381 65.7685C181.553 65.4934 181.783 65.2779 182.072 65.1222C182.36 64.9664 182.678 64.8504 183.026 64.7741C183.378 64.6946 183.731 64.6316 184.085 64.5852C184.549 64.5256 184.925 64.4808 185.214 64.451C185.505 64.4179 185.718 64.3632 185.85 64.2869C185.986 64.2107 186.054 64.0781 186.054 63.8892V63.8494C186.054 63.3589 185.92 62.9777 185.651 62.706C185.386 62.4342 184.983 62.2983 184.443 62.2983C183.883 62.2983 183.444 62.4209 183.126 62.6662C182.808 62.9115 182.584 63.1733 182.455 63.4517L181.341 63.054C181.54 62.59 181.805 62.2287 182.136 61.9702C182.471 61.7083 182.836 61.526 183.23 61.4233C183.628 61.3172 184.019 61.2642 184.403 61.2642C184.649 61.2642 184.93 61.294 185.249 61.3537C185.57 61.41 185.88 61.5277 186.178 61.7067C186.48 61.8857 186.73 62.1558 186.929 62.517C187.128 62.8783 187.227 63.3622 187.227 63.9688V69H186.054V67.9659H185.994C185.915 68.1316 185.782 68.3089 185.597 68.4979C185.411 68.6868 185.164 68.8475 184.856 68.9801C184.548 69.1127 184.171 69.179 183.727 69.179ZM183.906 68.125C184.37 68.125 184.761 68.0339 185.08 67.8516C185.401 67.6693 185.643 67.4339 185.805 67.1456C185.971 66.8572 186.054 66.554 186.054 66.2358V65.1619C186.004 65.2216 185.895 65.2763 185.726 65.326C185.56 65.3724 185.368 65.4138 185.149 65.4503C184.934 65.4834 184.723 65.5133 184.518 65.5398C184.316 65.563 184.152 65.5829 184.026 65.5994C183.721 65.6392 183.436 65.7038 183.17 65.7933C182.909 65.8795 182.696 66.0104 182.534 66.1861C182.375 66.3584 182.295 66.5937 182.295 66.892C182.295 67.2997 182.446 67.608 182.748 67.8168C183.053 68.0223 183.439 68.125 183.906 68.125ZM190.542 64.4062V69H189.369V61.3636H190.502V62.5568H190.602C190.781 62.169 191.052 61.8575 191.417 61.6222C191.782 61.3835 192.252 61.2642 192.829 61.2642C193.346 61.2642 193.798 61.3703 194.186 61.5824C194.574 61.7912 194.876 62.1094 195.091 62.5369C195.307 62.9612 195.414 63.4981 195.414 64.1477V69H194.241V64.2273C194.241 63.6274 194.085 63.16 193.774 62.8253C193.462 62.4872 193.035 62.3182 192.491 62.3182C192.116 62.3182 191.782 62.3994 191.487 62.5618C191.195 62.7242 190.965 62.9612 190.796 63.2727C190.627 63.5843 190.542 63.9621 190.542 64.4062ZM200.661 69.1591C199.945 69.1591 199.328 68.9901 198.811 68.652C198.294 68.3139 197.896 67.8482 197.618 67.255C197.339 66.6617 197.2 65.9839 197.2 65.2216C197.2 64.446 197.343 63.7616 197.628 63.1683C197.916 62.5717 198.317 62.1061 198.831 61.7713C199.348 61.4332 199.951 61.2642 200.641 61.2642C201.178 61.2642 201.661 61.3636 202.092 61.5625C202.523 61.7614 202.876 62.0398 203.151 62.3977C203.426 62.7557 203.597 63.1733 203.663 63.6506H202.49C202.401 63.3026 202.202 62.9943 201.893 62.7259C201.589 62.4541 201.178 62.3182 200.661 62.3182C200.203 62.3182 199.802 62.4375 199.457 62.6761C199.116 62.9115 198.849 63.2446 198.657 63.6754C198.468 64.103 198.374 64.6051 198.374 65.1818C198.374 65.7718 198.466 66.2855 198.652 66.723C198.841 67.1605 199.106 67.5002 199.447 67.7422C199.792 67.9841 200.196 68.1051 200.661 68.1051C200.965 68.1051 201.242 68.0521 201.491 67.946C201.739 67.84 201.95 67.6875 202.122 67.4886C202.295 67.2898 202.417 67.0511 202.49 66.7727H203.663C203.597 67.2235 203.433 67.6295 203.171 67.9908C202.913 68.3487 202.57 68.6338 202.142 68.8459C201.718 69.0547 201.224 69.1591 200.661 69.1591ZM205.379 69V61.3636H206.552V69H205.379ZM205.975 60.0909C205.746 60.0909 205.549 60.013 205.384 59.8572C205.221 59.7015 205.14 59.5142 205.14 59.2955C205.14 59.0767 205.221 58.8894 205.384 58.7337C205.549 58.5779 205.746 58.5 205.975 58.5C206.204 58.5 206.399 58.5779 206.562 58.7337C206.728 58.8894 206.81 59.0767 206.81 59.2955C206.81 59.5142 206.728 59.7015 206.562 59.8572C206.399 60.013 206.204 60.0909 205.975 60.0909ZM210.948 69.179C210.464 69.179 210.025 69.0878 209.631 68.9055C209.236 68.7199 208.923 68.4531 208.691 68.1051C208.459 67.7538 208.343 67.3295 208.343 66.8324C208.343 66.3949 208.429 66.0402 208.601 65.7685C208.774 65.4934 209.004 65.2779 209.292 65.1222C209.581 64.9664 209.899 64.8504 210.247 64.7741C210.598 64.6946 210.951 64.6316 211.306 64.5852C211.77 64.5256 212.146 64.4808 212.434 64.451C212.726 64.4179 212.938 64.3632 213.071 64.2869C213.207 64.2107 213.275 64.0781 213.275 63.8892V63.8494C213.275 63.3589 213.14 62.9777 212.872 62.706C212.607 62.4342 212.204 62.2983 211.664 62.2983C211.104 62.2983 210.665 62.4209 210.346 62.6662C210.028 62.9115 209.805 63.1733 209.675 63.4517L208.562 63.054C208.76 62.59 209.026 62.2287 209.357 61.9702C209.692 61.7083 210.056 61.526 210.451 61.4233C210.849 61.3172 211.24 61.2642 211.624 61.2642C211.869 61.2642 212.151 61.294 212.469 61.3537C212.791 61.41 213.101 61.5277 213.399 61.7067C213.701 61.8857 213.951 62.1558 214.15 62.517C214.349 62.8783 214.448 63.3622 214.448 63.9688V69H213.275V67.9659H213.215C213.135 68.1316 213.003 68.3089 212.817 68.4979C212.632 68.6868 212.385 68.8475 212.077 68.9801C211.768 69.1127 211.392 69.179 210.948 69.179ZM211.127 68.125C211.591 68.125 211.982 68.0339 212.3 67.8516C212.622 67.6693 212.864 67.4339 213.026 67.1456C213.192 66.8572 213.275 66.554 213.275 66.2358V65.1619C213.225 65.2216 213.116 65.2763 212.947 65.326C212.781 65.3724 212.589 65.4138 212.37 65.4503C212.154 65.4834 211.944 65.5133 211.738 65.5398C211.536 65.563 211.372 65.5829 211.246 65.5994C210.941 65.6392 210.656 65.7038 210.391 65.7933C210.129 65.8795 209.917 66.0104 209.755 66.1861C209.596 66.3584 209.516 66.5937 209.516 66.892C209.516 67.2997 209.667 67.608 209.969 67.8168C210.273 68.0223 210.66 68.125 211.127 68.125ZM217.763 58.8182V69H216.589V58.8182H217.763ZM232.202 62H230.969C230.896 61.6454 230.768 61.3338 230.586 61.0653C230.407 60.7969 230.188 60.5715 229.93 60.3892C229.674 60.2036 229.391 60.0644 229.079 59.9716C228.768 59.8788 228.443 59.8324 228.105 59.8324C227.488 59.8324 226.93 59.9882 226.43 60.2997C225.932 60.6113 225.536 61.0703 225.241 61.6768C224.95 62.2834 224.804 63.0275 224.804 63.9091C224.804 64.7907 224.95 65.5348 225.241 66.1413C225.536 66.7479 225.932 67.2069 226.43 67.5185C226.93 67.83 227.488 67.9858 228.105 67.9858C228.443 67.9858 228.768 67.9394 229.079 67.8466C229.391 67.7538 229.674 67.6162 229.93 67.4339C230.188 67.2483 230.407 67.0213 230.586 66.7528C230.768 66.4811 230.896 66.1695 230.969 65.8182H232.202C232.109 66.3385 231.94 66.8042 231.694 67.2152C231.449 67.6262 231.144 67.9759 230.78 68.2642C230.415 68.5492 230.006 68.7663 229.552 68.9155C229.101 69.0646 228.619 69.1392 228.105 69.1392C227.237 69.1392 226.464 68.9271 225.788 68.5028C225.112 68.0786 224.58 67.4754 224.192 66.6932C223.805 65.911 223.611 64.983 223.611 63.9091C223.611 62.8352 223.805 61.9072 224.192 61.125C224.58 60.3428 225.112 59.7396 225.788 59.3153C226.464 58.8911 227.237 58.679 228.105 58.679C228.619 58.679 229.101 58.7536 229.552 58.9027C230.006 59.0518 230.415 59.2706 230.78 59.5589C231.144 59.844 231.449 60.192 231.694 60.603C231.94 61.0107 232.109 61.4763 232.202 62ZM236.282 69.179C235.798 69.179 235.359 69.0878 234.964 68.9055C234.57 68.7199 234.257 68.4531 234.025 68.1051C233.793 67.7538 233.677 67.3295 233.677 66.8324C233.677 66.3949 233.763 66.0402 233.935 65.7685C234.108 65.4934 234.338 65.2779 234.626 65.1222C234.915 64.9664 235.233 64.8504 235.581 64.7741C235.932 64.6946 236.285 64.6316 236.64 64.5852C237.104 64.5256 237.48 64.4808 237.768 64.451C238.06 64.4179 238.272 64.3632 238.405 64.2869C238.541 64.2107 238.609 64.0781 238.609 63.8892V63.8494C238.609 63.3589 238.474 62.9777 238.206 62.706C237.941 62.4342 237.538 62.2983 236.998 62.2983C236.438 62.2983 235.999 62.4209 235.68 62.6662C235.362 62.9115 235.138 63.1733 235.009 63.4517L233.896 63.054C234.094 62.59 234.36 62.2287 234.691 61.9702C235.026 61.7083 235.39 61.526 235.785 61.4233C236.183 61.3172 236.574 61.2642 236.958 61.2642C237.203 61.2642 237.485 61.294 237.803 61.3537C238.125 61.41 238.435 61.5277 238.733 61.7067C239.035 61.8857 239.285 62.1558 239.484 62.517C239.683 62.8783 239.782 63.3622 239.782 63.9688V69H238.609V67.9659H238.549C238.469 68.1316 238.337 68.3089 238.151 68.4979C237.966 68.6868 237.719 68.8475 237.411 68.9801C237.102 69.1127 236.726 69.179 236.282 69.179ZM236.461 68.125C236.925 68.125 237.316 68.0339 237.634 67.8516C237.956 67.6693 238.198 67.4339 238.36 67.1456C238.526 66.8572 238.609 66.554 238.609 66.2358V65.1619C238.559 65.2216 238.45 65.2763 238.281 65.326C238.115 65.3724 237.923 65.4138 237.704 65.4503C237.488 65.4834 237.278 65.5133 237.072 65.5398C236.87 65.563 236.706 65.5829 236.58 65.5994C236.275 65.6392 235.99 65.7038 235.725 65.7933C235.463 65.8795 235.251 66.0104 235.089 66.1861C234.93 66.3584 234.85 66.5937 234.85 66.892C234.85 67.2997 235.001 67.608 235.303 67.8168C235.607 68.0223 235.994 68.125 236.461 68.125ZM241.923 69V61.3636H243.057V62.517H243.137C243.276 62.1392 243.528 61.8326 243.892 61.5973C244.257 61.362 244.668 61.2443 245.125 61.2443C245.211 61.2443 245.319 61.246 245.448 61.2493C245.578 61.2526 245.675 61.2576 245.742 61.2642V62.4574C245.702 62.4474 245.611 62.4325 245.468 62.4126C245.329 62.3894 245.182 62.3778 245.026 62.3778C244.655 62.3778 244.323 62.4557 244.031 62.6115C243.743 62.764 243.514 62.9761 243.345 63.2479C243.18 63.5163 243.097 63.8229 243.097 64.1676V69H241.923ZM250.102 69.1591C249.366 69.1591 248.731 68.9967 248.198 68.6719C247.667 68.3438 247.258 67.8864 246.97 67.2997C246.685 66.7098 246.542 66.0237 246.542 65.2415C246.542 64.4593 246.685 63.7699 246.97 63.1733C247.258 62.5734 247.659 62.1061 248.173 61.7713C248.69 61.4332 249.293 61.2642 249.982 61.2642C250.38 61.2642 250.773 61.3305 251.161 61.4631C251.548 61.5956 251.901 61.8111 252.22 62.1094C252.538 62.4044 252.791 62.7955 252.98 63.2827C253.169 63.7699 253.264 64.3698 253.264 65.0824V65.5795H247.377V64.5653H252.07C252.07 64.1345 251.984 63.75 251.812 63.4119C251.643 63.0739 251.401 62.8071 251.086 62.6115C250.775 62.416 250.407 62.3182 249.982 62.3182C249.515 62.3182 249.111 62.4342 248.769 62.6662C248.431 62.8949 248.171 63.1932 247.989 63.5611C247.807 63.929 247.715 64.3234 247.715 64.7443V65.4205C247.715 65.9972 247.815 66.486 248.014 66.8871C248.216 67.2848 248.496 67.5881 248.854 67.7969C249.212 68.0024 249.628 68.1051 250.102 68.1051C250.41 68.1051 250.688 68.062 250.937 67.9759C251.189 67.8864 251.406 67.7538 251.588 67.5781C251.771 67.3991 251.911 67.1771 252.011 66.9119L253.144 67.2301C253.025 67.6146 252.825 67.9527 252.543 68.2443C252.261 68.5327 251.913 68.758 251.499 68.9205C251.084 69.0795 250.619 69.1591 250.102 69.1591ZM258.25 69.1591C257.514 69.1591 256.88 68.9967 256.346 68.6719C255.816 68.3438 255.406 67.8864 255.118 67.2997C254.833 66.7098 254.691 66.0237 254.691 65.2415C254.691 64.4593 254.833 63.7699 255.118 63.1733C255.406 62.5734 255.807 62.1061 256.321 61.7713C256.838 61.4332 257.441 61.2642 258.131 61.2642C258.529 61.2642 258.921 61.3305 259.309 61.4631C259.697 61.5956 260.05 61.8111 260.368 62.1094C260.686 62.4044 260.94 62.7955 261.129 63.2827C261.318 63.7699 261.412 64.3698 261.412 65.0824V65.5795H255.526V64.5653H260.219C260.219 64.1345 260.133 63.75 259.96 63.4119C259.791 63.0739 259.549 62.8071 259.235 62.6115C258.923 62.416 258.555 62.3182 258.131 62.3182C257.664 62.3182 257.259 62.4342 256.918 62.6662C256.58 62.8949 256.32 63.1932 256.137 63.5611C255.955 63.929 255.864 64.3234 255.864 64.7443V65.4205C255.864 65.9972 255.963 66.486 256.162 66.8871C256.364 67.2848 256.644 67.5881 257.002 67.7969C257.36 68.0024 257.776 68.1051 258.25 68.1051C258.558 68.1051 258.837 68.062 259.085 67.9759C259.337 67.8864 259.554 67.7538 259.737 67.5781C259.919 67.3991 260.06 67.1771 260.159 66.9119L261.293 67.2301C261.173 67.6146 260.973 67.9527 260.691 68.2443C260.41 68.5327 260.061 68.758 259.647 68.9205C259.233 69.0795 258.767 69.1591 258.25 69.1591ZM263.197 69V61.3636H264.33V62.517H264.41C264.549 62.1392 264.801 61.8326 265.166 61.5973C265.53 61.362 265.941 61.2443 266.399 61.2443C266.485 61.2443 266.593 61.246 266.722 61.2493C266.851 61.2526 266.949 61.2576 267.015 61.2642V62.4574C266.975 62.4474 266.884 62.4325 266.742 62.4126C266.602 62.3894 266.455 62.3778 266.299 62.3778C265.928 62.3778 265.597 62.4557 265.305 62.6115C265.017 62.764 264.788 62.9761 264.619 63.2479C264.453 63.5163 264.37 63.8229 264.37 64.1676V69H263.197Z" fill="#F3F3F3"/>
</g>
<defs>
<filter id="filter0_di_1_1934" x="0" y="0" width="334" height="136" filterUnits="userSpaceOnUse" color-interpolation-filters="sRGB">
<feFlood flood-opacity="0" result="BackgroundImageFix"/>
<feColorMatrix in="SourceAlpha" type="matrix" values="0 0 0 0 0 0 0 0 0 0 0 0 0 0 0 0 0 0 127 0" result="hardAlpha"/>
<feOffset dy="4"/>
<feGaussianBlur stdDeviation="25"/>
<feComposite in2="hardAlpha" operator="out"/>
<feColorMatrix type="matrix" values="0 0 0 0 0.85098 0 0 0 0 0.215686 0 0 0 0 0.286275 0 0 0 0.4 0"/>
<feBlend mode="normal" in2="BackgroundImageFix" result="effect1_dropShadow_1_1934"/>
<feBlend mode="normal" in="SourceGraphic" in2="effect1_dropShadow_1_1934" result="shape"/>
<feColorMatrix in="SourceAlpha" type="matrix" values="0 0 0 0 0 0 0 0 0 0 0 0 0 0 0 0 0 0 127 0" result="hardAlpha"/>
<feOffset/>
<feGaussianBlur stdDeviation="6"/>
<feComposite in2="hardAlpha" operator="arithmetic" k2="-1" k3="1"/>
<feColorMatrix type="matrix" values="0 0 0 0 1 0 0 0 0 1 0 0 0 0 1 0 0 0 0.2 0"/>
<feBlend mode="normal" in2="shape" result="effect2_innerShadow_1_1934"/>
</filter>
<radialGradient id="paint0_angular_1_1934" cx="0" cy="0" r="1" gradientUnits="userSpaceOnUse" gradientTransform="translate(167.5 64) scale(117.5 136.5)">
<stop offset="0.321352" stop-color="#D9D9D9"/>
<stop offset="0.436125" stop-color="#D9D9D9" stop-opacity="0"/>
<stop offset="0.613007" stop-color="#D9D9D9" stop-opacity="0"/>
<stop offset="0.932089" stop-color="#D9D9D9" stop-opacity="0"/>
<stop offset="0.992519" stop-color="#D9D9D9"/>
</radialGradient>
<linearGradient id="paint1_linear_1_1934" x1="50" y1="64.4737" x2="284" y2="64.4737" gradientUnits="userSpaceOnUse">
<stop stop-color="#D93749"/>
<stop offset="0.505" stop-color="#D93749"/>
<stop offset="1" stop-color="#FFADB6"/>
</linearGradient>
</defs>
</svg>
