<svg width="42" height="42" viewBox="0 0 42 42" fill="none" xmlns="http://www.w3.org/2000/svg">
<path d="M15.8669 27.302V29.2353C15.8669 30.5687 16.2669 32.502 8.93353 33.902C1.6002 35.302 1.2002 41.2353 1.2002 41.2353H41.2002C41.2002 41.2353 41.2002 35.502 32.9335 33.902C25.8002 32.502 25.8669 30.5687 25.8669 29.2353V27.4353" stroke="#F6F7F8" stroke-width="1.5" stroke-linecap="round" stroke-linejoin="round"/>
<path d="M10.5335 33.5686L21.2002 41.2353L31.8669 33.7019M24.9335 28.1019C27.3424 26.5004 29.0569 24.0477 29.7335 21.2353C31.7335 21.2353 32.2002 18.3686 32.2002 17.7019C32.2002 17.0353 32.5335 14.6353 30.5335 14.5686V10.5686M11.8669 10.5686V14.5686C9.86688 14.5686 9.86688 17.3019 9.86688 17.9019C9.86688 18.5019 10.1335 21.2353 12.1335 21.2353C12.4251 22.6459 13.0011 23.9823 13.8264 25.163C14.6516 26.3436 15.7089 27.3436 16.9335 28.1019" stroke="#F6F7F8" stroke-width="1.5" stroke-linecap="round" stroke-linejoin="round"/>
<path d="M21.2002 7.90202L2.53351 3.90202L21.2002 1.23535L39.8668 3.90202L21.2002 7.90202Z" stroke="#F6F7F8" stroke-width="1.5" stroke-miterlimit="10" stroke-linecap="round" stroke-linejoin="round"/>
<path d="M11.8669 5.90203V10.5687L21.2002 11.902L30.5335 10.5687V5.90203M3.86688 4.1687V19.902" stroke="#F6F7F8" stroke-width="1.5" stroke-miterlimit="10" stroke-linecap="round" stroke-linejoin="round"/>
</svg>
